<?xml version="1.0" encoding="UTF-8" standalone="no"?>
<!DOCTYPE svg PUBLIC "-//W3C//DTD SVG 1.1//EN" "http://www.w3.org/Graphics/SVG/1.1/DTD/svg11.dtd">
<svg width="100%" height="100%" viewBox="0 0 1920 253" version="1.1" xmlns="http://www.w3.org/2000/svg" xmlns:xlink="http://www.w3.org/1999/xlink" xml:space="preserve" xmlns:serif="http://www.serif.com/" style="fill-rule:evenodd;clip-rule:evenodd;stroke-linejoin:round;stroke-miterlimit:2;">
    <g transform="matrix(1,0,0,1,0,-104.264)">
        <path d="M1895.43,320.031L1920,311.827L1920,104.264L0,104.264L0,334.516L24.882,334.516C64.756,330.599 112.434,316.568 152,322.891C183.569,327.936 217.051,354.026 249.102,351.207C302.642,346.498 346.895,306.35 403.306,309.735C432.653,311.496 453.552,336.074 481.432,341.503C491.24,343.413 502.344,339.399 512.362,339.56C523.698,339.742 533.083,345.644 544.48,342.68C560.101,338.619 574.046,325.19 590.986,326.393C621.234,328.542 644.499,353.954 675.34,354.031C699.553,354.091 714.487,333.594 736.788,331.654C764.654,329.23 792.715,341.608 820.917,340.084C844.758,338.796 865.764,327.546 888.857,323.086C908.064,319.376 925.691,326.733 944.611,325.661C957.723,324.918 967.74,314.671 980.28,313.071C998.693,310.723 1034.34,326.748 1054.25,329.744C1086.68,334.622 1118.73,327.111 1151.23,329.133C1172.13,330.433 1190.37,342.075 1211,343.45C1251.47,346.147 1287.69,318.812 1328.71,318.35C1344.3,318.174 1359.69,321.409 1375.28,321.584C1390.26,321.751 1407.14,317.41 1421.78,321.155C1445.67,327.269 1465.46,345.5 1490.5,348.096C1528.83,352.069 1555.12,325.751 1586.26,326.584C1620.46,327.499 1647.23,354.431 1679.66,356.821C1706.68,358.812 1733.86,340.512 1760.17,335.989C1784.28,331.844 1808.05,335.45 1832.24,334.182C1854.41,333.02 1874.44,326.322 1895.43,320.031Z" style="fill:rgb(130,102,104);"/>
    </g>
</svg>
