<?xml version="1.0" encoding="UTF-8" standalone="no"?>
<!DOCTYPE svg PUBLIC "-//W3C//DTD SVG 1.1//EN" "http://www.w3.org/Graphics/SVG/1.1/DTD/svg11.dtd">
<svg width="100%" height="100%" viewBox="0 0 1920 283" version="1.1" xmlns="http://www.w3.org/2000/svg" xmlns:xlink="http://www.w3.org/1999/xlink" xml:space="preserve" xmlns:serif="http://www.serif.com/" style="fill-rule:evenodd;clip-rule:evenodd;stroke-linejoin:round;stroke-miterlimit:2;">
    <g transform="matrix(1,0,0,1,0,-104.264)">
        <path d="M1898.86,348.242L1920,339.397L1920,104.264L0,104.264L0,364.209L22.14,364.209C66.293,356.78 99.568,385.271 141.516,386.592C195.558,388.294 225.952,349.3 276.845,347.66C327.875,346.016 369.584,382.015 407.762,382.178C439.015,382.311 455.612,351.53 484.877,351.382C521.567,351.197 549.462,383.859 585.472,385.998C614.686,387.733 645.664,369.886 674.612,365.966C702.385,362.205 730.569,365.301 758.47,364.376C794.912,363.169 831.066,357.928 867.6,356.913C911.515,355.692 938.379,383.947 976.731,382.945C1015.99,381.92 1056.62,349.003 1104.77,349.335C1125.65,349.48 1144.06,359.902 1163.64,365.658C1186.07,372.251 1211.01,375.291 1234.34,376.152C1257.54,377.009 1275.32,360.42 1298.33,360.018C1327.98,359.501 1351.81,383.895 1381.25,384.143C1409.41,384.38 1449.86,367.973 1480.55,364.385C1517.58,360.056 1553.9,368.311 1590.84,366.551C1624.94,364.926 1657.49,352.651 1691.41,350C1724.34,347.425 1757.54,356.339 1790.29,358.832C1827.27,361.648 1862.85,355.622 1898.86,348.242Z" style="fill:rgb(142,116,117);"/>
    </g>
</svg>
