<?xml version="1.0" encoding="UTF-8" standalone="no"?>
<!DOCTYPE svg PUBLIC "-//W3C//DTD SVG 1.1//EN" "http://www.w3.org/Graphics/SVG/1.1/DTD/svg11.dtd">
<svg width="100%" height="100%" viewBox="0 0 1920 208" version="1.1" xmlns="http://www.w3.org/2000/svg" xmlns:xlink="http://www.w3.org/1999/xlink" xml:space="preserve" xmlns:serif="http://www.serif.com/" style="fill-rule:evenodd;clip-rule:evenodd;stroke-linejoin:round;stroke-miterlimit:2;">
    <g transform="matrix(1,0,0,1,0,-104.264)">
        <path d="M1902.67,237.344L1920,233.52L1920,104.264L0,104.264L0,262.554L34.829,288.706C58.783,291.97 81.403,292.565 105.238,288.461C128.413,284.471 153.273,273.514 177.068,276.364C214.666,280.867 249.733,314.117 288.836,309.318C330.438,304.212 359.164,267.108 402.692,267.453C432.109,267.687 454.012,291.832 481.979,293.627C502.589,294.949 519.281,276.914 538.944,276.78C560.469,276.634 577.227,295.807 597.266,300.493C606.269,302.598 616.527,295.661 625.057,293.801C635.884,291.441 645.83,294.981 656.577,294.01C672.422,292.579 678.922,273.171 697.226,273.671C713.178,274.106 729.15,284.222 743.528,290.238C762.652,298.239 784.809,304.668 805.567,305.763C832.225,307.17 851.159,280.386 878.223,285.394C904.192,290.199 926.31,311.322 953.34,311.821C973.5,312.194 990.89,295.146 1008.77,287.905C1036.47,276.684 1067.18,272.037 1096.76,268.781C1127.92,265.35 1155.38,268.664 1184.4,280.546C1201.45,287.525 1217.53,301.753 1236.4,303.323C1248.51,304.332 1258.66,297.98 1270.38,296.884C1282.31,295.768 1290.02,300.64 1302.47,296.226C1313.51,292.312 1321.85,279.818 1333.99,279.723C1346.82,279.621 1359.32,287.838 1371.13,291.721C1384.25,296.032 1398.36,296.651 1411.78,299.694C1423.36,302.32 1434.47,307.559 1446.24,309.114C1477.4,313.231 1507.29,293.422 1538.87,293.9C1557.73,294.186 1575.98,299.606 1594.89,297.959C1622.36,295.566 1648.39,285.103 1676.24,284.909C1721.88,284.592 1767.76,294.567 1812.85,281.318C1825.01,277.747 1835.1,270.049 1846.79,265.437C1868.47,256.885 1884.53,253.013 1902.67,237.344Z" style="fill:rgb(120,90,92);"/>
    </g>
</svg>
