<?xml version="1.0" encoding="UTF-8" standalone="no"?>
<!DOCTYPE svg PUBLIC "-//W3C//DTD SVG 1.1//EN" "http://www.w3.org/Graphics/SVG/1.1/DTD/svg11.dtd">
<svg width="100%" height="100%" viewBox="0 0 1920 150" version="1.1" xmlns="http://www.w3.org/2000/svg" xmlns:xlink="http://www.w3.org/1999/xlink" xml:space="preserve" xmlns:serif="http://www.serif.com/" style="fill-rule:evenodd;clip-rule:evenodd;stroke-linejoin:round;stroke-miterlimit:2;">
    <g transform="matrix(1,0,0,1,0,-104.264)">
        <path d="M1920,104.264L0,105.355L0,199.985C22.49,199.985 73.081,208.057 93.743,216.912C116.76,226.777 139.217,242.106 165.391,241.468C185.138,240.986 203.211,220.701 222.742,215.33C261.942,204.55 279.205,224.734 303.612,221.605C319.656,219.548 325.668,204.629 339.026,198.141C350.161,192.733 365.892,193.477 377.988,193.23C409.502,192.587 422.965,218.128 452.037,222.86C508.074,231.983 568.107,222.461 624.799,226.08C662.822,228.507 695.621,245.309 735.681,246.161C760.014,246.679 772.846,227.874 794.888,225.425C839.85,220.429 884.236,226.868 929.125,225.971C951.653,225.52 973.741,219.901 996.244,219.423C1029.69,218.711 1053.49,243.932 1086.44,244.633C1096.37,244.844 1140.94,245.474 1147.56,243.269C1158.55,239.605 1162.57,223.347 1174.52,223.024C1188.83,222.637 1199.71,236.72 1212.61,241.25C1234.25,248.854 1256.27,251.09 1279.07,252.545C1308.62,254.432 1334.36,253.107 1363.27,246.761C1379.06,243.294 1393.8,235.03 1410.2,234.374C1436.26,233.332 1461.2,244.467 1487.08,246.052C1526.09,248.44 1572.01,242.581 1609.81,232.683C1653.9,221.135 1686.56,205.112 1734,204.143C1771.83,203.372 1861.23,207.045 1889.67,190.671C1915.02,176.073 1920,104.264 1920,104.264Z" style="fill:rgb(109,77,79);"/>
    </g>
</svg>
