<?xml version="1.0" encoding="UTF-8" standalone="no"?>
<!DOCTYPE svg PUBLIC "-//W3C//DTD SVG 1.1//EN" "http://www.w3.org/Graphics/SVG/1.1/DTD/svg11.dtd">
<svg width="100%" height="100%" viewBox="0 0 1920 1200" version="1.1" xmlns="http://www.w3.org/2000/svg" xmlns:xlink="http://www.w3.org/1999/xlink" xml:space="preserve" xmlns:serif="http://www.serif.com/" style="fill-rule:evenodd;clip-rule:evenodd;stroke-linejoin:round;stroke-miterlimit:2;">
    <g id="path0" transform="matrix(4.7998,0,0,4.7998,0.071997,-0.548964)">
        <path d="M-0.015,0.114L-0,38.429L-0,76.442L0.573,76.428C1.425,76.407 2.684,76.788 3.147,77.208C3.719,77.725 6.265,78.338 8.138,78.409C9.004,78.442 9.848,78.555 10.013,78.66C10.579,79.022 12.189,79.357 13.405,79.366L14.622,79.375L14.476,80.469C14.396,81.07 14.195,81.715 14.03,81.902C13.359,82.663 9.977,82.417 8.942,81.531C8.761,81.377 8.452,81.25 8.254,81.25C8.057,81.25 7.611,81.103 7.263,80.922C6.914,80.742 6.504,80.643 6.351,80.702C6.026,80.826 5.007,80.518 3.93,79.969C3.513,79.757 2.986,79.583 2.758,79.583C2.529,79.583 2.226,79.443 2.083,79.271C1.941,79.099 1.667,78.958 1.474,78.958C1.282,78.958 1.028,78.862 0.91,78.743C0.326,78.159 0,78.767 0,80.439C0,82.026 0.017,82.083 0.49,82.083C2.208,82.083 3.958,83.315 3.958,84.526C3.958,85.236 4.068,85.543 4.425,85.832C4.864,86.187 4.871,86.233 4.544,86.595C4.353,86.806 4.008,87.418 3.778,87.955C2.954,89.878 1.268,90.077 1.828,88.186C2.491,85.947 2.331,84.805 1.184,83.594C-0.031,82.31 0,82.097 0,91.667L0,100.417L1.238,100.417C1.918,100.417 2.533,100.51 2.604,100.625C2.675,100.74 2.956,100.833 3.229,100.833C3.502,100.833 3.783,100.927 3.854,101.042C3.925,101.156 4.166,101.25 4.39,101.25C4.614,101.25 4.971,101.358 5.183,101.491C5.482,101.678 5.886,101.652 6.992,101.374C8.894,100.896 15.462,100.647 15.93,101.035C16.666,101.646 15.978,102.912 15.15,102.469C14.533,102.138 8.822,102.399 7.188,102.832C5.331,103.323 4.408,103.411 4.068,103.129C3.832,102.934 3.667,102.951 3.296,103.211C3.036,103.393 2.582,103.542 2.287,103.542C1.992,103.542 1.661,103.628 1.552,103.734C1.443,103.84 1.073,103.957 0.729,103.994L0.104,104.063L0.045,106.074L-0.015,108.086L0.774,108.214C1.208,108.284 3.66,108.38 6.225,108.426C8.789,108.473 10.951,108.589 11.029,108.683C11.968,109.815 11.174,111.042 9.502,111.042C9.216,111.042 8.925,111.135 8.854,111.25C8.783,111.365 8.56,111.458 8.357,111.458C8.155,111.458 7.769,111.693 7.5,111.979C7.231,112.266 6.812,112.5 6.57,112.5C6.322,112.5 5.725,112.911 5.208,113.438C4.702,113.953 4.108,114.375 3.887,114.375C3.667,114.375 3.159,114.577 2.759,114.825L2.032,115.274L2.128,117.431C2.2,119.063 2.153,119.689 1.933,120.003C1.293,120.916 1.665,122.179 2.595,122.255C4.88,122.441 6.896,120.836 7.039,118.717C7.168,116.807 7.907,116.042 9.622,116.042C10.604,116.042 10.878,115.964 11.09,115.625C11.246,115.375 11.576,115.208 11.913,115.208C12.222,115.208 12.533,115.115 12.604,115C12.675,114.885 12.896,114.792 13.095,114.792C13.294,114.792 13.823,114.417 14.271,113.958C14.771,113.446 15.276,113.125 15.582,113.125C15.856,113.125 16.463,112.797 16.931,112.396C17.4,111.995 17.995,111.667 18.254,111.667C18.513,111.667 18.783,111.573 18.854,111.458C19.127,111.016 20.326,111.237 20.899,111.834C21.562,112.527 21.619,113.332 21.042,113.854C20.775,114.096 20.625,114.496 20.625,114.967C20.625,115.38 20.46,115.891 20.247,116.132C20.039,116.369 19.7,116.984 19.493,117.5C19.287,118.016 18.834,119.084 18.488,119.873C17.475,122.179 17.55,127.059 18.598,127.08C18.687,127.082 19.156,126.725 19.64,126.287C20.124,125.849 20.849,125.365 21.25,125.211C22.053,124.903 22.708,124.414 22.708,124.123C22.708,124.02 22.887,123.542 23.106,123.061C23.325,122.581 23.57,121.835 23.651,121.404C23.731,120.973 23.88,120.569 23.982,120.506C24.084,120.443 24.167,120.182 24.167,119.926C24.167,119.656 24.518,119.116 25,118.646C25.458,118.198 25.833,117.669 25.833,117.47C25.833,117.271 25.921,117.054 26.028,116.988C26.135,116.921 26.214,115.973 26.203,114.881C26.182,112.789 26.429,112.133 27.136,112.405C27.504,112.546 27.917,113.541 27.917,114.286C27.917,114.748 29.882,116.667 30.355,116.667C30.656,116.667 31.25,117.379 31.25,117.741C31.25,117.912 31.484,118.273 31.771,118.542C32.057,118.811 32.292,119.191 32.292,119.386C32.292,119.581 32.438,119.862 32.616,120.01C32.795,120.158 33.062,120.57 33.21,120.924C34.23,123.365 38.832,124.495 43.021,123.333C45.584,122.622 48.476,122.743 49.297,123.595C52.139,126.543 51.943,126.259 52.096,127.663C52.46,130.999 54.948,130.794 58.25,127.158L59.863,125.381L60.817,125.488C61.342,125.547 62.615,125.687 63.646,125.798C64.677,125.91 65.681,126.066 65.877,126.145C66.384,126.349 67.563,125.91 68.131,125.306C68.577,124.831 68.761,124.792 70.542,124.792L72.47,124.792L72.874,125.885C73.096,126.487 73.339,127.307 73.415,127.708C73.624,128.822 74.787,130.262 75.747,130.598C76.195,130.755 76.769,131.071 77.02,131.301C78.677,132.813 80,131.226 80,127.727C80,124.698 80.155,124.413 82.387,123.338C83.461,122.82 84.349,122.226 84.717,121.779C87.051,118.948 87.071,118.638 85.025,116.999C84.324,116.437 83.75,115.897 83.75,115.801C83.75,115.704 83.606,115.625 83.429,115.625C83.253,115.625 82.737,115.436 82.283,115.204C81.461,114.785 81.456,114.785 80.655,115.193C79.785,115.637 78.958,115.379 78.958,114.662C78.958,114.49 78.256,113.611 77.397,112.709C75.855,111.09 75.653,110.61 76.396,110.325C76.573,110.257 77.14,110.437 77.656,110.726C78.172,111.014 78.77,111.25 78.985,111.25C79.199,111.25 79.375,111.332 79.375,111.431C79.375,111.9 82.733,111.924 83.228,111.459C83.624,111.087 84.046,110.991 85.707,110.892C87.009,110.814 87.79,110.674 87.942,110.49C88.071,110.335 88.338,110.208 88.535,110.208C89.139,110.208 89.583,109.513 89.583,108.568C89.583,107.622 89.713,107.448 91.507,105.994C92.034,105.566 92.597,104.957 92.757,104.64C93.273,103.619 93.636,103.032 94.063,102.534C94.924,101.526 94.371,97.426 93.422,97.789C93.285,97.842 92.911,97.612 92.59,97.277L92.008,96.669L92.442,96.199C93.621,94.923 93.029,90.7 91.77,91.404C91.411,91.606 89.28,91.03 88.87,90.62C88.5,90.25 86.946,90.408 85.749,90.937C83.739,91.827 82.287,91.373 82.913,90.051C83.366,89.095 83.448,84.327 83.023,83.678C82.09,82.254 86.668,81.654 88.034,83.02C88.414,83.4 89.269,83.908 89.935,84.149C90.601,84.391 91.395,84.728 91.699,84.898C92.003,85.069 92.437,85.208 92.663,85.208C92.889,85.208 93.191,85.349 93.333,85.521C93.522,85.748 94.021,85.833 95.16,85.833L96.726,85.833L96.581,83.906C96.501,82.846 96.347,81.89 96.239,81.781C95.927,81.469 96.002,81.06 96.591,79.857C97.119,78.778 97.13,78.678 96.898,77.232C96.765,76.405 96.635,75.307 96.609,74.792L96.563,73.854L97.391,73.75C97.947,73.68 98.289,73.506 98.432,73.221C98.825,72.44 99.536,71.667 99.861,71.667C100.039,71.667 100.245,71.567 100.32,71.445C100.396,71.324 100.682,71.139 100.958,71.034C101.626,70.78 101.565,69.574 100.808,68.076C100.707,67.877 100.625,67.544 100.625,67.335C100.625,66.513 99.371,65.684 97.917,65.544C93.887,65.157 94.303,65.303 92.541,63.66C91.659,62.837 90.633,61.952 90.26,61.693C88.714,60.617 89.511,59.375 91.748,59.375C93.099,59.375 93.306,59.32 93.711,58.854C94.076,58.434 94.357,58.333 95.16,58.333C96.958,58.333 99.73,55.067 98.675,54.191C98.52,54.062 97.992,53.152 97.503,52.17C97.014,51.187 96.488,50.335 96.333,50.276C95.869,50.097 95.417,48.955 95.417,47.958C95.417,47.197 95.281,46.856 94.687,46.132C94.147,45.472 93.958,45.044 93.958,44.474C93.958,43.959 93.787,43.502 93.438,43.087C92.632,42.129 92.794,41.048 93.7,41.34C94.042,41.451 94.239,41.711 95.355,43.525C95.825,44.288 97.839,46.039 98.249,46.041C98.579,46.042 99.056,46.661 99.374,47.5C99.526,47.901 99.836,48.437 100.063,48.69C100.289,48.944 100.579,49.359 100.706,49.614C100.953,50.107 103.377,50.233 103.844,49.777C104.158,49.47 105.033,49.563 105.938,50C106.848,50.44 107.818,50.537 108.021,50.208C108.233,49.866 108.868,49.972 109.271,50.417C109.478,50.646 109.758,50.833 109.892,50.833C110.026,50.833 110.356,51.068 110.625,51.354C111.431,52.212 112.623,52.089 113.646,51.042C114.25,50.423 114.626,50.208 115.107,50.208C116.488,50.208 116.979,49.278 116.979,46.663C116.979,45.127 116.895,44.312 116.719,44.135C116.576,43.992 116.458,43.486 116.458,43.011C116.458,42.412 116.331,42.032 116.042,41.771C115.033,40.858 116.146,38.548 117.6,38.539C117.831,38.538 118.423,38.163 118.915,37.706C119.407,37.249 119.906,36.875 120.023,36.875C120.958,36.875 122.917,34.456 122.917,33.302L122.917,32.5L121.262,32.5C120.352,32.5 119.55,32.406 119.479,32.292C119.223,31.877 118.799,32.097 118.677,32.709C118.589,33.151 118.261,33.533 117.56,34.011C117.015,34.383 116.312,34.952 115.998,35.276C114.705,36.612 114.036,36.91 113.28,36.487C112.136,35.849 112.465,34.583 113.774,34.583C114.348,34.583 116.508,33.05 116.979,32.307C117.567,31.381 117.287,29.941 116.372,29.182C115.359,28.341 116.737,25.417 118.147,25.417C118.546,25.417 118.834,24.868 118.533,24.682C117.971,24.335 119.026,22.708 119.813,22.708C119.985,22.708 120.231,22.602 120.361,22.472C121.112,21.721 121.648,23.769 120.944,24.7C120.776,24.922 120.635,25.25 120.632,25.428C120.628,25.606 120.297,26.07 119.896,26.458C118.388,27.92 119.081,29.492 121.398,29.862C122.353,30.015 123.003,29.486 123.253,28.352C123.541,27.047 123.498,27.083 124.778,27.083C126.035,27.083 127.083,27.608 127.083,28.237C127.083,28.692 127.844,29.012 128.32,28.757C128.88,28.457 129.617,28.777 130.435,29.677C130.806,30.084 131.307,30.417 131.55,30.417C131.792,30.417 132.2,30.563 132.456,30.743C132.716,30.925 133.099,31.012 133.325,30.94C133.753,30.804 135,31.338 135,31.657C135,32.086 134.296,32.5 133.567,32.5C133.138,32.5 132.606,32.638 132.384,32.806C132.161,32.974 131.855,33.115 131.704,33.118C131.552,33.122 131.284,33.27 131.107,33.447C130.93,33.624 130.679,33.733 130.549,33.691C130.323,33.616 130.191,33.389 129.551,31.99C128.935,30.64 127.243,29.551 126.949,30.315C126.768,30.787 127.646,32.769 128.455,33.713C129.232,34.621 129.337,35.264 128.86,36.181C128.311,37.235 127.956,38.212 127.813,39.063C127.736,39.521 127.447,40.194 127.17,40.559C126.642,41.255 126.478,42.644 126.877,43.043C126.992,43.159 127.156,43.916 127.241,44.727L127.396,46.2L128.906,47.788C130.571,49.538 131.396,49.833 132.188,48.958C132.395,48.729 132.808,48.539 133.105,48.535C133.403,48.531 133.828,48.391 134.05,48.223C134.273,48.054 134.765,47.917 135.144,47.917C135.798,47.917 135.833,47.878 135.833,47.158C135.833,46.681 136.064,46.025 136.458,45.384C136.802,44.826 137.083,44.177 137.083,43.942C137.083,43.707 137.263,43.075 137.484,42.539C138.019,41.234 138.244,35.938 137.791,35.318C136.85,34.031 138.026,33.13 139.009,34.386L139.507,35.021L140.804,34.812C142.892,34.476 143.373,34.958 142.127,36.139C141.493,36.739 141.195,36.872 140.469,36.873L139.583,36.875L139.583,37.875C139.583,39.145 139.889,39.497 140.495,38.924C141.234,38.225 142.437,37.708 143.325,37.708C143.901,37.708 144.167,37.618 144.167,37.421C144.167,36.908 144.818,36.576 145.91,36.533C146.498,36.509 147.553,36.426 148.255,36.347C149.11,36.251 149.577,36.28 149.673,36.435C149.752,36.563 150.126,36.667 150.505,36.667C152.364,36.667 153.88,39.348 152.813,40.748C152.063,41.73 152.144,42.6 153.093,43.789C153.486,44.281 153.223,44.583 152.401,44.583C152.016,44.583 151.662,44.701 151.615,44.844C151.558,45.013 151.259,44.868 150.757,44.427C149.9,43.675 149.78,43.637 149.411,44.005C149.21,44.207 149.07,44.207 148.748,44.005C148.523,43.865 147.741,43.75 147.01,43.75C145.463,43.75 144.715,43.314 144.511,42.295C144.303,41.256 142.834,39.832 142.305,40.156C142.072,40.299 141.749,40.417 141.589,40.417C141.429,40.417 141.148,40.732 140.965,41.117C140.782,41.502 140.49,41.936 140.316,42.08C140.075,42.281 140,42.803 140,44.296L140,46.249L139.242,47.088C138.825,47.55 138.215,48.086 137.888,48.28C137.263,48.648 136.959,51.228 137.5,51.563C137.615,51.633 137.708,52.296 137.708,53.036C137.708,55.285 138.318,56.042 140.128,56.042C142.002,56.042 142.292,56.392 142.292,58.66C142.292,60.751 142.513,61.327 144.238,63.715C145.161,64.994 145.581,65.031 146.819,63.944C147.201,63.608 147.702,63.333 147.931,63.333C148.16,63.333 148.557,63.196 148.812,63.029C149.419,62.632 150.335,63.037 150.27,63.673C150.151,64.829 149.832,65.208 148.979,65.208C147.778,65.208 146.787,66.074 146.972,66.961C147.046,67.315 147.159,67.958 147.222,68.39C147.297,68.907 147.489,69.254 147.783,69.406C148.028,69.532 148.417,69.799 148.646,69.999C148.875,70.199 149.314,70.421 149.622,70.494C149.929,70.567 150.381,70.907 150.625,71.25C151.118,71.942 152.727,73.125 153.176,73.125C153.595,73.125 154.508,72.072 154.664,71.409C154.848,70.627 155.647,70.134 156.447,70.31C157.326,70.503 157.397,70.738 156.779,71.404C155.922,72.328 155.947,72.557 157.098,74.253C158.089,75.713 158.225,75.833 158.896,75.833C159.456,75.833 159.875,76.051 160.735,76.785C162.045,77.905 163.017,78.01 163.48,77.083C163.695,76.653 163.892,76.563 164.605,76.563C165.646,76.563 165.714,76.456 166.035,74.32C166.243,72.934 166.231,72.61 165.952,72.049C165.772,71.689 165.625,71.307 165.625,71.2C165.625,71.094 165.203,70.469 164.688,69.813C163.142,67.846 163.383,67.221 165.775,66.994L167.279,66.851L167.858,67.734C169.501,70.236 171.588,71.331 172.596,70.217C173.235,69.511 173.569,66.879 173.096,66.274C172.883,66.001 172.708,65.552 172.708,65.277C172.708,65.002 172.568,64.563 172.397,64.302C172.127,63.889 172.125,63.773 172.382,63.424C172.931,62.678 174.167,63.554 174.167,64.688C174.167,65.975 174.66,66.329 176.591,66.426C178.067,66.501 178.172,66.54 178.708,67.211C179.017,67.599 179.411,67.917 179.583,67.918C179.755,67.919 180.164,68.059 180.493,68.23C181.343,68.674 181.352,68.67 182.88,67.292C184.462,65.864 184.812,65.793 185.89,66.682C186.317,67.034 186.667,67.223 186.667,67.103C186.667,66.982 187.091,66.493 187.609,66.015C188.128,65.537 188.709,64.808 188.9,64.396C189.092,63.983 189.337,63.586 189.444,63.512C189.74,63.309 189.496,60.084 189.153,59.671C188.992,59.477 188.504,59.093 188.068,58.818C187.632,58.543 187.171,58.089 187.044,57.809C186.916,57.529 186.63,57.242 186.408,57.171C186.185,57.101 185.873,56.731 185.713,56.348C185.554,55.966 185.322,55.591 185.199,55.515C185.074,55.438 185.031,55.126 185.101,54.805C185.241,54.167 184.997,53.881 184.138,53.676C182.665,53.325 183.458,52.292 185.2,52.292C186.926,52.292 187.471,52.748 187.124,53.903C186.987,54.361 186.875,54.9 186.875,55.1C186.875,55.531 188.814,57.594 189.632,58.034C190.257,58.371 190.833,59.315 190.833,60.004C190.833,60.246 191.057,60.743 191.331,61.108C191.85,61.8 191.85,61.79 191.606,65.488C191.541,66.481 192.243,67.083 193.47,67.085C194.1,67.086 194.475,67.261 195.227,67.905L196.182,68.724L196.086,69.935C195.973,71.374 195.837,71.581 194.888,71.758C194.491,71.833 194.167,71.968 194.167,72.059C194.167,72.264 193.22,72.708 192.783,72.708C191.327,72.708 190.861,74.344 192.083,75.162C192.983,75.764 193.058,75.957 192.592,76.472C192.39,76.695 192.286,76.939 192.361,77.013C192.435,77.088 192.413,77.252 192.312,77.377C192.133,77.597 191.475,78.729 190.906,79.792C190.753,80.078 190.627,80.486 190.626,80.697C190.626,80.908 190.414,81.375 190.156,81.735C189.006,83.337 189.161,85.029 190.483,85.301C192.198,85.654 193.349,85.643 193.905,85.268C194.221,85.055 194.76,84.745 195.104,84.58C195.732,84.278 196.263,83.765 197.364,82.402C198.402,81.116 199.515,81.696 198.75,83.125C198.461,83.666 198.754,84.327 199.723,85.317C200.783,86.4 201.25,87.157 201.25,87.793C201.25,88.077 201.344,88.367 201.458,88.438C201.885,88.701 201.184,90.417 200.65,90.417C200.172,90.417 199.484,89.005 199.482,88.021C199.478,86.662 198.502,86.261 197.106,87.045C196.02,87.656 194.014,87.496 193.306,86.742C192.276,85.645 191.744,86.833 192.646,88.216L193.182,89.035L192.621,89.518C192.312,89.783 191.883,90 191.667,90C191.451,90 191.217,90.094 191.146,90.208C191.075,90.323 190.808,90.417 190.552,90.417C190.275,90.417 189.711,90.8 189.158,91.364L188.229,92.311L188.289,93.911C188.338,95.203 188.434,95.601 188.792,95.982C189.196,96.412 189.212,96.528 188.978,97.309C188.68,98.303 188.971,98.801 190.142,99.296C190.507,99.451 190.864,99.672 190.936,99.789C191.18,100.184 193.588,100.036 194.271,99.583C194.615,99.356 195.135,99.169 195.428,99.168C196.837,99.164 197.625,97.425 196.781,96.181C196.473,95.727 196.354,95.377 196.481,95.298C196.609,95.22 196.638,94.739 196.555,94.077C196.394,92.784 196.797,92.124 197.514,92.508C197.736,92.626 197.926,92.79 197.938,92.872C197.95,92.954 197.982,93.372 198.009,93.801C198.07,94.771 198.517,95.281 199.587,95.601C200.419,95.851 200.494,95.96 200.426,96.816C200.343,97.847 200.64,97.995 202.843,98.024C204.117,98.04 205.164,97.945 205.602,97.773L206.308,97.497L206.18,98.577C206.107,99.202 206.142,99.765 206.264,99.912C206.721,100.464 209.521,99.663 210.477,98.706C211.747,97.435 212.854,98.597 213.095,101.457C213.34,104.354 214.25,105.258 215.669,104.013C216.457,103.322 216.783,97.324 216.072,96.613C215.941,96.482 215.833,96.3 215.833,96.208C215.833,95.949 216.554,96.012 216.839,96.297C217.04,96.498 217.188,96.493 217.543,96.272C217.79,96.117 218.906,95.919 220.024,95.831C222.222,95.659 223.962,94.748 223.603,93.958C223.524,93.786 223.423,93.049 223.378,92.32C223.296,90.999 223.292,90.992 222.493,90.678C221.574,90.317 221.328,89.911 221.798,89.533C223.389,88.251 223.517,87.64 222.377,86.771C221.705,86.258 221.643,86.129 221.763,85.491C221.861,84.969 221.79,84.631 221.497,84.213C221.278,83.901 220.913,83.224 220.686,82.708C220.169,81.534 217.612,79.074 216.723,78.897C215.678,78.688 215.78,77.5 216.843,77.5C217.037,77.5 217.371,77.177 217.583,76.783C218.096,75.83 218.321,75.774 220.071,76.164C222.967,76.808 223.072,77.561 220.342,78.104C218.683,78.433 218.705,78.279 220.13,79.624C220.827,80.282 221.538,81.218 221.887,81.936C222.21,82.6 222.761,83.471 223.112,83.871C223.463,84.271 223.75,84.716 223.75,84.861C223.75,85.297 225.297,86.667 225.79,86.667C226.399,86.667 226.427,87.692 225.833,88.229C225.19,88.812 225.281,89.855 226.029,90.45C227.446,91.578 227.871,91.779 229.269,91.979C230.906,92.213 231.096,92.452 230.536,93.574C229.846,94.958 230.679,97.292 231.865,97.292C232.071,97.292 232.361,97.437 232.508,97.614C232.861,98.039 234.779,97.952 235.017,97.5C235.599,96.395 235.833,95.672 235.833,94.98C235.833,94.546 235.927,94.133 236.042,94.062C236.156,93.992 236.25,93.721 236.25,93.462C236.25,92.316 237.025,92.026 239.645,92.189C241.318,92.294 242.073,92.269 242.173,92.107C242.252,91.979 242.579,91.875 242.901,91.875C243.222,91.875 243.734,91.679 244.039,91.44C244.355,91.191 245.096,90.936 245.766,90.845C247.683,90.585 248.119,88.994 246.704,87.425C246.431,87.122 246.354,86.625 246.354,85.153C246.354,83.286 246.349,83.266 245.744,82.928C244.576,82.275 245.076,81.411 246.77,81.157C248.159,80.948 248.333,80.854 248.333,80.305C248.333,79.101 249.588,79 250.639,80.12C250.913,80.41 251.467,80.688 251.92,80.76C253.177,80.962 253.24,81.755 252.084,82.846C251.43,83.463 251.354,83.679 251.633,84.12C251.89,84.524 253.908,83.952 254.366,83.345C255.071,82.411 255.909,82.896 256.369,84.505C256.737,85.791 256.787,85.857 257.285,85.732C257.575,85.659 258.002,85.582 258.234,85.56C258.466,85.539 258.924,85.31 259.252,85.052C260.237,84.277 260.625,84.661 260.625,86.408C260.625,88.03 261.584,88.71 262.906,88.026C263.595,87.67 265.415,85.613 265.42,85.186C265.431,84.122 266.331,82.64 266.863,82.809C267.054,82.869 267.392,82.781 267.615,82.612C268.178,82.186 268.6,82.218 269.257,82.735L269.821,83.178L270.535,82.486C270.928,82.105 271.25,81.615 271.25,81.398C271.25,81.18 271.431,80.748 271.652,80.438C271.883,80.112 272.117,79.312 272.204,78.546C272.343,77.311 272.424,77.15 273.364,76.239C273.924,75.698 274.375,75.07 274.375,74.835C274.375,74.601 274.432,74.261 274.501,74.08C274.584,73.863 274.513,73.75 274.293,73.75C273.899,73.75 273.856,73.16 274.196,72.414C274.432,71.897 274.633,71.832 276.666,71.617C277.038,71.578 277.291,71.338 277.556,70.774C277.928,69.983 278.564,69.583 279.45,69.583C279.717,69.583 280.255,69.235 280.71,68.769L281.505,67.955L281.142,67.131C280.619,65.945 279.984,65.64 278.321,65.774C277.215,65.863 276.888,65.817 276.603,65.532C275.671,64.599 277.268,64.051 280.201,64.295C281.514,64.405 281.828,64.37 282.062,64.089C282.216,63.902 282.489,63.75 282.668,63.75C282.847,63.75 283.188,63.571 283.424,63.353C283.661,63.135 284.182,62.776 284.583,62.555C285.304,62.158 285.313,62.135 285.375,60.608C285.513,57.159 287.205,56.772 289.851,59.583C290.822,60.615 291.763,61.458 291.942,61.458C292.453,61.458 294.167,59.224 294.167,58.559C294.167,58.004 294.902,57.083 295.346,57.083C296.079,57.083 296.89,52.772 296.297,52.025C296.187,51.885 296.047,51.315 295.988,50.757L295.879,49.744L296.975,49.835C297.818,49.905 298.257,50.079 298.875,50.588C299.958,51.481 301.145,51.507 302.128,50.661C302.61,50.246 303.05,50.067 303.615,50.056C304.217,50.044 304.584,49.879 305.084,49.395C305.45,49.04 305.832,48.75 305.934,48.75C306.036,48.75 306.339,48.543 306.608,48.29C307.034,47.891 307.179,47.861 307.718,48.065C309.014,48.554 309.232,46.818 308.051,45.415C307.748,45.054 307.447,44.509 307.383,44.203C307.319,43.896 307.178,43.505 307.069,43.333C306.491,42.418 306.382,42.042 306.596,41.703C307.216,40.719 308.417,41.548 308.623,43.102C308.715,43.793 308.913,44.233 309.273,44.547C309.558,44.794 309.792,45.18 309.792,45.403C309.792,46.23 311.436,46.807 312.057,46.198C312.331,45.93 313.33,46.884 313.332,47.416C313.334,47.885 314.112,48.333 314.923,48.333C316.329,48.333 317.708,46.479 317.708,44.588C317.708,43.819 317.818,43.512 318.229,43.125C318.882,42.512 318.896,41.81 318.265,41.397C317.998,41.222 317.69,40.766 317.581,40.383C317.434,39.871 317.246,39.669 316.868,39.618C316.241,39.532 315.208,38.595 315.208,38.11C315.208,37.236 316.12,37.022 319.807,37.028C321.72,37.031 323.414,36.952 323.57,36.853C323.749,36.739 323.42,36.672 322.677,36.67L321.499,36.667L321.777,35.743C322.015,34.953 322.011,34.783 321.754,34.569C321.537,34.389 321.515,34.246 321.674,34.053C321.828,33.868 321.829,33.746 321.677,33.652C321.557,33.578 321.458,33.022 321.458,32.416C321.458,31.355 321.069,30.624 320.504,30.625C320.395,30.626 320.341,29.681 320.378,28.438L320.443,26.25L318.758,26.25L318.808,23.676C318.861,20.911 319.028,20.417 319.91,20.417C320.952,20.417 321.156,19.561 320.294,18.807L319.526,18.135L320.316,17.245C320.751,16.755 321.277,16.189 321.484,15.988C322.326,15.17 321.059,14.446 319.941,15.106C319.333,15.465 319.3,15.464 319.03,15.095C318.646,14.57 318.672,14.413 319.271,13.627C319.733,13.021 319.792,12.743 319.792,11.145C319.792,9.377 319.805,9.328 320.574,8.371C322.216,6.323 322.721,4.989 322.994,1.967C323.13,0.459 323.571,0.485 325.303,2.106C326.457,3.185 326.644,3.456 326.534,3.893C326.403,4.416 327.684,6.042 328.227,6.042C328.352,6.042 328.82,6.228 329.267,6.456C330.069,6.865 331.558,6.822 332.744,6.355C332.977,6.263 333.17,6.362 333.326,6.653C333.611,7.185 332.741,8.125 331.965,8.125C331.546,8.125 330.236,9.176 330.191,9.547C330.039,10.812 330.092,10.956 331.079,11.939C332.004,12.861 332.083,13.02 332.083,13.951C332.083,15.601 332.907,16.667 334.181,16.667C334.822,16.667 335.202,16.567 335.273,16.381C335.381,16.101 336.729,15.381 337.655,15.11C337.912,15.034 338.277,14.819 338.465,14.63C339.265,13.831 340,14.295 340,15.599C340,16.348 339.726,16.553 338.809,16.491C337.879,16.429 337.368,16.742 336.897,17.664C335.88,19.659 336.596,20.904 338.249,20.014L339.063,19.577L339.63,20.257C339.942,20.631 340.196,21.078 340.195,21.25C340.194,21.452 340.104,21.403 339.941,21.11C339.72,20.715 339.627,20.69 339.212,20.912C338.951,21.053 338.81,21.246 338.9,21.341C338.989,21.437 338.922,21.469 338.75,21.413C338.578,21.356 338.203,21.399 337.917,21.507C337.63,21.616 337.168,21.748 336.89,21.801C336.611,21.854 336.284,21.958 336.163,22.033C336.042,22.107 335.649,22.143 335.289,22.112C333.508,21.959 331.19,22.743 330.973,23.572C330.912,23.808 330.785,23.956 330.691,23.902C330.597,23.848 330.312,24.062 330.057,24.377L329.593,24.95L330.207,25.073C331.163,25.264 332.5,26.195 332.5,26.669C332.5,26.994 332.64,27.083 333.149,27.083C333.506,27.083 334.138,27.264 334.555,27.484C334.972,27.705 335.565,27.94 335.874,28.006C336.192,28.075 336.593,28.392 336.796,28.736C337.629,30.146 340.108,29.541 340.584,27.813C340.686,27.441 340.919,27.158 341.159,27.115C341.381,27.075 341.771,26.849 342.026,26.614L342.49,26.187L343.777,27.052C344.486,27.528 345.218,27.917 345.406,27.917C345.593,27.917 346.088,28.239 346.505,28.632L347.264,29.348L346.325,30.117C345.656,30.665 345.451,30.951 345.61,31.11C345.974,31.474 345.87,32.61 345.437,33.002C345.178,33.237 344.994,33.284 344.904,33.139C344.681,32.778 343.265,32.854 343.405,33.219C343.481,33.417 343.42,33.482 343.227,33.408C343.066,33.346 342.626,33.585 342.248,33.938C341.871,34.292 341.447,34.582 341.306,34.582C340.776,34.584 342.3,36.909 342.922,37.048C343.653,37.211 344.003,37.788 343.888,38.643C343.808,39.24 343.872,39.581 344.115,39.849C344.76,40.562 343.969,40.931 340.938,41.329L338.229,41.686L336.704,43.187C334.858,45.003 334.684,45.279 335.111,45.706C335.286,45.881 335.555,45.976 335.708,45.917C335.862,45.858 336.316,46.026 336.718,46.29C337.12,46.555 337.621,46.873 337.832,46.998C338.33,47.292 337.742,48.333 337.079,48.333C336.699,48.333 336.667,48.479 336.667,50.187C336.667,52.928 336.983,53.168 341.034,53.497C343.284,53.68 344.114,53.826 344.405,54.09C344.618,54.282 344.798,54.355 344.806,54.251C344.814,54.147 344.898,54.25 344.993,54.479C345.105,54.751 345.057,55.066 344.854,55.388C344.523,55.912 344.632,57.585 345.012,57.82C345.336,58.02 345.25,60.65 344.906,61.03C344.506,61.472 344.245,64.043 344.539,64.646C344.662,64.898 344.803,65.599 344.851,66.205C344.91,66.933 345.085,67.462 345.368,67.767C346.029,68.482 346.096,70.631 345.477,71.29C345.099,71.692 345.011,72.051 344.979,73.303L344.941,74.827L346.585,76.499C348.994,78.949 350.204,79.691 351.09,79.264C352.52,78.574 352.676,78.438 352.934,77.655C353.338,76.431 353.736,76.338 354.853,77.209C356.479,78.476 356.243,79.324 354.051,80.093C352.57,80.612 351.458,81.25 351.458,81.579C351.458,81.711 351.275,82.052 351.051,82.337C350.827,82.621 350.463,83.506 350.243,84.301C350.022,85.097 349.606,86.214 349.317,86.784C348.367,88.658 348.255,89.432 348.766,90.569C349.492,92.182 349.656,92.292 351.34,92.292L352.823,92.292L354.288,90.781C355.093,89.951 355.961,88.832 356.217,88.295C356.983,86.687 358.492,85.151 359.147,85.313C360.157,85.562 360.171,85.683 359.382,87.292C359.297,87.464 359.017,87.635 358.758,87.674C357.967,87.791 358.655,89.792 359.487,89.792C359.627,89.792 359.999,90.128 360.313,90.539C360.82,91.205 360.958,91.273 361.571,91.158C361.963,91.084 362.316,91.121 362.392,91.244C362.465,91.362 363.035,91.458 363.658,91.458C364.425,91.458 364.793,91.543 364.795,91.719C364.796,91.862 364.851,92.18 364.917,92.425C365.046,92.906 364.901,92.945 361.875,93.257C361.245,93.321 360.635,93.443 360.521,93.526C360.406,93.61 359.879,93.838 359.348,94.034C357.135,94.851 357.077,96.057 359.239,96.318C360.728,96.497 364.6,95.858 364.757,95.407C364.942,94.876 366.901,95.475 367.157,96.141C367.225,96.319 367.52,96.555 367.812,96.666C368.324,96.861 368.339,96.916 368.236,98.278C368.091,100.181 367.228,100.89 366.795,99.462C366.294,97.811 365.845,96.98 365.479,97.026C362.429,97.409 360.392,98.074 359.439,98.998C358.492,99.915 358.555,100.094 360.077,100.82C362.005,101.74 362.348,102.957 360.817,103.443C360.499,103.544 360.41,103.7 360.491,104.012C360.553,104.249 360.506,104.626 360.386,104.85C360.033,105.508 360.59,105.93 361.373,105.596C362.159,105.26 362.917,104.588 362.917,104.225C362.917,104.068 363.197,103.779 363.54,103.584C363.883,103.389 364.165,103.121 364.165,102.988C364.166,102.856 364.475,102.379 364.851,101.929L365.535,101.11L365.893,101.584C366.089,101.844 366.25,102.286 366.25,102.566C366.25,102.845 366.381,103.183 366.542,103.316C366.703,103.45 366.89,103.782 366.959,104.055C367.312,105.464 372.274,109.583 373.618,109.583C374.695,109.583 374.882,108.041 373.946,106.86C373.596,106.417 373.151,105.564 372.957,104.964C372.651,104.019 372.417,103.731 371.205,102.822C370.435,102.244 369.802,101.656 369.799,101.515C369.795,101.375 369.567,101.112 369.292,100.932C368.602,100.48 368.829,99.572 369.689,99.342C370.397,99.152 370.368,99.131 371.057,100.381C371.352,100.916 372.008,101.67 372.515,102.055C373.565,102.853 374.165,103.694 374.357,104.633C374.552,105.585 375,105.625 375,104.691C375,103.418 375.279,103.127 376.518,103.11C378.964,103.075 379.383,102.915 380.018,101.771C380.744,100.466 380.76,99.984 380.104,99.205C379.818,98.864 379.581,98.505 379.579,98.407C379.576,98.309 379.278,98.084 378.917,97.906C377.632,97.273 377.713,96.149 379.026,96.4C379.345,96.461 379.739,96.301 380.182,95.928L380.853,95.363L381.364,95.843C381.66,96.12 381.875,96.558 381.875,96.88C381.875,97.187 381.982,97.745 382.113,98.121L382.352,98.805L383.992,98.668C386.099,98.492 386.853,98.089 388.935,96.027C390.593,94.385 390.899,94.185 391.146,94.583C391.217,94.698 391.545,94.792 391.875,94.792C392.205,94.792 392.536,94.89 392.61,95.01C392.8,95.317 393.333,94.844 393.333,94.369C393.333,94.165 393.005,93.605 392.604,93.125C391.826,92.194 391.746,91.979 392.096,91.763C392.218,91.688 392.405,91.424 392.512,91.178C392.62,90.931 392.825,90.563 392.968,90.36C393.193,90.041 393.136,89.918 392.552,89.459C391.721,88.807 391.71,88.57 392.476,87.835C393.11,87.228 394.33,87.11 394.215,87.668C394.184,87.817 394.301,88.143 394.475,88.391C394.839,88.91 394.914,91.15 394.575,91.359C393.839,91.814 395.566,93.75 396.708,93.75C397.966,93.75 397.752,94.916 396.445,95.183C395.899,95.295 395.718,95.459 395.588,95.961C395.402,96.677 394.716,97.083 393.688,97.084C392.731,97.086 386.684,102.685 386.671,103.582C386.669,103.776 386.467,104.274 386.222,104.688C385.853,105.313 385.818,105.529 386.014,105.96C386.144,106.245 386.25,106.692 386.25,106.953C386.25,107.84 387.092,108.358 388.647,108.426L390.046,108.488L391.571,109.869C392.577,110.78 393.269,111.25 393.606,111.25C393.886,111.25 394.232,111.391 394.375,111.563C394.518,111.734 394.893,111.875 395.208,111.875C395.524,111.875 395.899,112.016 396.042,112.188C396.237,112.422 396.761,112.5 398.151,112.5L400,112.5L400,82.708L399.077,82.708C397.981,82.708 397.5,82.314 397.5,81.416C397.5,79.917 396.521,78.153 395.677,78.132C395.534,78.128 395.417,78.046 395.417,77.95C395.417,77.754 393.044,76.648 391.771,76.251C391.313,76.108 390.848,75.909 390.74,75.808C390.631,75.707 390.369,75.625 390.158,75.625C389.947,75.625 389.521,75.443 389.21,75.22C388.9,74.998 388.13,74.663 387.5,74.476C385.545,73.897 385.287,73.534 385.923,72.258C386.103,71.898 386.25,71.397 386.25,71.146C386.25,70.591 386.739,70.123 387.768,69.693C388.281,69.478 388.542,69.234 388.542,68.968C388.542,68.747 388.635,68.508 388.75,68.438C389.016,68.273 389.019,67.062 388.755,66.368C388.514,65.733 388.008,65.684 386.73,66.173C385.705,66.564 385.111,66.327 384.44,65.258C384.243,64.944 383.75,64.3 383.343,63.827C381.427,61.597 381.465,61.684 381.978,60.701C382.149,60.373 382.293,59.964 382.297,59.792C382.301,59.62 382.443,59.297 382.611,59.075C383.077,58.459 382.993,57.436 382.434,56.911C381.735,56.254 381.093,56.328 380.667,57.116C379.698,58.912 377.5,59.125 377.5,57.423C377.5,57.167 377.409,56.867 377.297,56.755C376.938,56.397 377.292,55 377.742,55C377.96,55 378.206,54.817 378.289,54.593C378.636,53.654 381.052,51.25 381.648,51.25C381.966,51.25 382.398,51.061 382.607,50.83C382.821,50.593 383.137,50.459 383.333,50.521C383.532,50.584 383.85,50.443 384.079,50.19C385.465,48.658 386.667,49.194 386.667,51.344C386.667,51.806 387.447,52.708 387.846,52.708C388.556,52.708 388.774,53.481 388.735,55.863C388.701,57.963 388.738,58.237 389.06,58.301C389.259,58.341 389.704,58.694 390.048,59.086C390.875,60.028 391.626,60.542 392.427,60.715C393.323,60.909 395.704,58.773 395.929,57.575C396.349,55.336 397.468,53.934 398.691,54.114C400.1,54.32 400,56.384 400,26.995L400,0.114M129.518,2.745C130.078,3.271 130.124,3.596 129.688,3.958C129.516,4.101 129.375,4.52 129.375,4.89C129.375,5.26 129.273,5.854 129.149,6.211C128.968,6.731 128.988,6.952 129.253,7.33C129.695,7.961 129.702,7.937 128.74,9.092C128.149,9.802 127.923,10.248 127.984,10.585C128.032,10.849 127.936,11.201 127.771,11.366C126.951,12.186 126.259,11.19 126.603,9.685C126.766,8.976 126.757,8.75 126.566,8.75C125.48,8.75 125.422,7.092 126.463,5.796C126.804,5.372 127.083,4.925 127.083,4.804C127.083,4.683 127.167,4.583 127.268,4.583C127.37,4.583 127.519,4.232 127.599,3.802C127.867,2.354 128.646,1.925 129.518,2.745M114.669,3.141C114.966,3.494 115.211,3.986 115.215,4.235C115.223,4.788 115.544,5.223 116.315,5.725C117.204,6.304 119.396,9.079 119.255,9.446C118.935,10.278 117.644,9.838 116.978,8.67C116.423,7.697 115.611,6.883 114.757,6.444C114.217,6.166 113.953,5.867 113.855,5.419C113.778,5.072 113.574,4.504 113.401,4.157C112.767,2.886 113.775,2.078 114.669,3.141M131.174,11.173C132.192,11.656 132.416,12.167 131.856,12.727C130.819,13.765 128.05,12.24 128.967,11.136C129.299,10.735 130.287,10.752 131.174,11.173M129.273,13.229C129.618,13.787 129.299,14.93 128.748,15.105C128.519,15.177 128.284,15.486 128.222,15.795C127.908,17.359 127.363,18.072 126.864,17.573C126.496,17.205 126.197,15.594 126.45,15.342C126.569,15.223 126.667,14.811 126.667,14.428C126.667,13.02 128.595,12.134 129.273,13.229M103.438,13.125C103.508,13.24 103.887,13.333 104.279,13.333C105.998,13.333 107.712,15.06 107.78,16.861C107.811,17.661 107.847,17.706 108.461,17.707C108.866,17.708 109.404,17.942 109.896,18.333C110.777,19.034 112.245,19.204 112.697,18.659C113.163,18.098 116.042,18.512 116.042,19.141C116.042,19.562 115.364,20 114.714,20C114.344,20 113.935,20.106 113.806,20.236C113.306,20.735 108.141,20.358 107.184,19.753C105.955,18.975 105.858,18.783 105.791,16.992L105.729,15.357L104.688,15.084C104.115,14.933 103.348,14.806 102.984,14.801C102.417,14.793 101.667,14.358 101.667,14.038C101.667,13.504 103.187,12.72 103.438,13.125M142.166,14.648C142.35,14.951 142.311,15.096 141.969,15.378C141.734,15.571 141.477,15.87 141.397,16.042C140.775,17.384 139.592,18.75 139.05,18.75C137.886,18.75 137.648,16.704 138.771,16.347C138.987,16.279 139.606,15.756 140.146,15.186C141.176,14.097 141.74,13.947 142.166,14.648M155.829,17.287C156.23,17.689 156.206,18.333 155.789,18.333C155.674,18.333 155.634,18.473 155.7,18.644C155.841,19.013 154.9,19.958 154.219,20.133C153.014,20.442 152.168,19.6 152.766,18.688C153.892,16.972 155.005,16.463 155.829,17.287M135.124,19.042C135.196,19.282 135.498,19.738 135.794,20.055C136.894,21.229 136.008,24.332 134.716,23.836C134.385,23.709 133.958,22.854 133.958,22.318C133.958,22.114 133.724,21.727 133.438,21.458C132.907,20.96 132.726,19.934 133.125,19.688C133.24,19.617 133.333,19.335 133.333,19.061C133.333,18.05 134.82,18.034 135.124,19.042M127.681,21.789C128.144,22.315 128.731,23.182 128.986,23.716C129.241,24.25 129.572,24.762 129.722,24.853C130.261,25.179 130.438,25.782 130.096,26.125C129.687,26.533 128.671,26.355 127.813,25.723C127.469,25.47 126.942,25.205 126.641,25.134C124.778,24.695 124.831,20.878 126.701,20.836C126.777,20.835 127.218,21.263 127.681,21.789M113.557,23.095C114.023,23.473 114.026,23.499 113.684,24.22C113.491,24.627 113.333,25.055 113.333,25.173C113.333,25.291 112.823,25.493 112.199,25.623C111.093,25.852 111.064,25.876 111.001,26.625C110.952,27.22 110.812,27.453 110.379,27.659C109.766,27.952 108.125,29.893 108.125,30.326C108.125,30.667 107.128,31.387 106.403,31.569C105.837,31.711 104.791,32.881 104.792,33.372C104.792,33.522 105.242,34.115 105.792,34.688C106.689,35.624 106.785,35.816 106.73,36.563C106.673,37.335 106.738,37.449 107.622,38.125C110.312,40.181 110.468,41.563 107.87,40.309C107.28,40.025 106.457,39.792 106.042,39.792C105.476,39.792 105.137,39.636 104.695,39.174C104.104,38.558 104.102,38.557 102.208,38.676L100.313,38.795L99.67,38.096C99.317,37.711 98.916,37.002 98.779,36.521L98.532,35.647L99.607,34.599C100.199,34.023 100.857,33.496 101.071,33.428C101.284,33.361 101.458,33.235 101.458,33.148C101.458,32.781 102.984,31.25 103.35,31.25C103.633,31.25 103.75,31.104 103.75,30.75C103.75,30.476 103.983,29.843 104.268,29.344C104.553,28.846 104.788,28.29 104.789,28.109C104.791,27.929 105.026,27.561 105.313,27.292C105.612,27.011 105.833,26.569 105.833,26.255C105.833,25.511 106.193,25.208 107.081,25.208C107.736,25.208 107.925,25.079 108.614,24.155C109.733,22.656 112.327,22.1 113.557,23.095M344.417,23.736C344.467,24.076 344.445,24.314 344.368,24.266C344.291,24.219 344.12,24.416 343.988,24.706C343.856,24.995 343.667,25.182 343.569,25.121C343.354,24.988 343.513,24 343.775,23.839C343.876,23.776 343.958,23.538 343.958,23.309C343.958,22.692 344.313,23.022 344.417,23.736M163.625,23.667C163.987,24.609 160.962,25.307 160.128,24.473C159.432,23.778 160.044,23.385 161.979,23.284C163.234,23.218 163.474,23.274 163.625,23.667M344.914,24.688C344.818,25.072 344.867,25.208 345.1,25.208C345.278,25.208 345.417,25.391 345.417,25.625C345.417,25.854 345.326,26.042 345.215,26.042C345.104,26.042 345.067,25.901 345.133,25.729C345.209,25.531 345.13,25.417 344.918,25.417C344.734,25.417 344.585,25.346 344.586,25.26C344.592,24.94 344.844,24.167 344.943,24.167C344.999,24.167 344.986,24.401 344.914,24.688M339.147,25.382C338.831,26.29 337.567,26.864 337.198,26.267C337.022,25.982 337.423,25.074 337.788,24.934C338.05,24.833 338.072,24.903 337.913,25.322C337.752,25.746 337.782,25.833 338.088,25.833C338.324,25.833 338.557,25.561 338.729,25.083C338.893,24.632 339.076,24.409 339.19,24.524C339.305,24.638 339.288,24.979 339.147,25.382M145.701,25.891C146.326,26.348 145.663,27.245 144.912,26.957C144.455,26.781 144.359,26.296 144.711,25.944C145.099,25.556 145.233,25.549 145.701,25.891M135.052,26.551C135.695,27.357 135.764,27.75 135.326,28.114C134.499,28.8 133.102,26.927 133.869,26.161C134.321,25.709 134.401,25.735 135.052,26.551M87.781,26.971C88.027,27.614 85.981,29.308 85.242,29.073C84.273,28.766 84.477,28.27 85.998,27.231C87.077,26.495 87.57,26.423 87.781,26.971M145.577,28.973C146.821,29.406 146.507,30.349 145.029,30.62C143.895,30.827 143.355,30.427 143.809,29.716C143.965,29.471 144.162,29.154 144.246,29.01C144.434,28.692 144.745,28.683 145.577,28.973M136.225,29.531C136.671,29.903 136.875,30.953 136.591,31.412C136.019,32.338 134.71,30.698 135.186,29.652C135.451,29.071 135.645,29.048 136.225,29.531M77.361,29.88C77.623,30.563 75.741,32.708 74.88,32.708C74.364,32.708 73.942,32.086 74.169,31.662C74.834,30.419 77.085,29.162 77.361,29.88M261.232,30.513C262.738,30.914 263.129,31.656 262.012,31.996C261.35,32.197 260.833,32.717 260.833,33.181C260.833,33.85 259.811,35.524 259.171,35.902C258.167,36.495 257.544,35.324 258.46,34.565C258.62,34.432 258.75,34.151 258.75,33.939C258.75,33.728 258.938,33.22 259.168,32.811C259.561,32.11 259.566,32.029 259.247,31.413C258.672,30.3 259.323,30.005 261.232,30.513M349.833,31.083C349.696,31.221 349.583,31.549 349.583,31.813C349.583,32.076 349.49,32.292 349.375,32.292C349.26,32.292 349.167,32.076 349.167,31.813C349.167,31.314 349.515,30.833 349.875,30.833C349.991,30.833 349.972,30.944 349.833,31.083M156.726,31.837C157.232,32.274 157.934,32.751 158.287,32.897C159.378,33.35 159.164,34.587 158.051,34.256C156.122,33.683 154.613,32.083 155.327,31.369C155.75,30.946 155.665,30.918 156.726,31.837M181.771,36.25C181.842,36.365 182.191,36.458 182.548,36.458C183.213,36.458 183.958,36.954 183.958,37.396C183.958,37.532 184.146,37.813 184.375,38.021C184.604,38.228 184.792,38.565 184.792,38.77C184.792,38.975 184.888,39.202 185.007,39.275C185.125,39.348 185.409,39.799 185.639,40.277C186.496,42.063 186.571,42.102 189.172,42.117C191.736,42.13 192.011,42.278 191.398,43.315C191.141,43.75 191.11,44.06 191.258,44.698C191.666,46.458 191.33,47.378 190.368,47.135C189.724,46.972 189.59,46.716 189.587,45.638C189.582,44.238 189.022,43.75 187.422,43.75C186.179,43.75 184.792,42.936 184.792,42.207C184.792,42.092 184.445,41.641 184.02,41.207C183.096,40.261 182.013,40.075 182.161,40.887C182.262,41.448 183.703,43.958 183.923,43.958C184.195,43.958 184.832,45.22 184.715,45.525C184.629,45.748 184.245,45.806 183.127,45.764C181.259,45.694 179.789,44.54 180.199,43.463C180.476,42.733 180.483,40.691 180.208,40.521C180.094,40.45 180,40.225 180,40.02C180,39.815 179.813,39.478 179.583,39.271C179.004,38.747 179.031,38.665 180.24,37.275C181.331,36.021 181.542,35.879 181.771,36.25M276.993,36.826C276.932,36.888 277.017,37.041 277.182,37.167C277.992,37.783 277.563,39.988 276.632,39.997C275.383,40.008 274.118,37.325 275.208,36.979C275.438,36.906 275.625,36.778 275.625,36.694C275.625,36.611 275.958,36.581 276.365,36.628C276.772,36.676 277.054,36.765 276.993,36.826M78.04,37.399C78.284,38.371 77.197,39.459 76.589,38.851C76.308,38.57 76.309,38.452 76.598,37.757C77.093,36.569 77.788,36.396 78.04,37.399M267.088,38.023C268.28,38.639 268.283,39.503 267.094,39.995C266.549,40.221 266.384,40.199 265.787,39.817C265.412,39.577 264.854,39.279 264.548,39.155C263.255,38.63 263.825,37.708 265.442,37.708C266.012,37.708 266.753,37.85 267.088,38.023M245.778,41.499C246.095,41.979 246.564,42.584 246.821,42.841C248.128,44.155 243.896,45.8 242.027,44.705L241.09,44.155L239.497,44.881C238.621,45.28 237.773,45.557 237.614,45.496C237.201,45.337 237.053,44.83 237.351,44.595C237.49,44.486 237.991,44.063 238.463,43.656C238.935,43.249 239.475,42.917 239.663,42.917C239.85,42.917 240.261,42.545 240.575,42.091C241.178,41.22 242.029,40.878 242.996,41.121C243.312,41.2 243.588,41.132 243.752,40.935C244.272,40.309 245.156,40.554 245.778,41.499M75.714,41.952C76.529,42.72 76.631,43.131 76.131,43.631C75.665,44.097 75.511,44.05 74.745,43.211C73.783,42.156 73.7,41.955 74.076,41.579C74.559,41.096 74.885,41.17 75.714,41.952M80.861,42.012C81.55,42.8 81.691,43.279 81.339,43.631C80.944,44.026 80.711,44.043 80.428,43.698C78.999,41.954 79.035,42.036 79.494,41.578C79.854,41.217 80.286,41.354 80.861,42.012M261.563,41.458C261.633,41.573 261.96,41.667 262.289,41.667C262.783,41.667 263.542,42.108 263.542,42.396C263.542,42.688 262.779,43.125 262.268,43.125C261.596,43.125 260,42.4 260,42.094C260,41.494 261.266,40.979 261.563,41.458M364.347,42.726C364.767,43.177 365.193,46.186 364.903,46.655C364.827,46.778 364.922,47.524 365.113,48.312C365.672,50.611 365.032,54.375 364.082,54.375C363.786,54.375 363.549,53.761 363.545,52.977C363.543,52.724 363.331,52.322 363.073,52.084C362.815,51.846 362.317,51.023 361.966,50.254L361.328,48.857L359.154,48.855C357.323,48.853 356.808,48.776 355.9,48.366C354.118,47.56 354.233,46.669 356.119,46.663C357.328,46.66 357.642,46.517 357.992,45.809C358.38,45.028 359.377,45.034 360.165,45.822C361.624,47.281 362.917,46.363 362.917,43.87C362.917,42.333 363.526,41.845 364.347,42.726M390.016,46.295C390.556,46.694 390.7,46.72 391.074,46.486C391.385,46.292 391.571,46.28 391.733,46.441C391.857,46.565 392.203,46.667 392.502,46.667C393.165,46.667 393.99,47.384 393.824,47.816C393.379,48.975 388.341,48.101 388.336,46.865C388.331,45.803 389.03,45.566 390.016,46.295M264.881,48.869C265.566,49.554 263.928,51.331 262.884,51.034C261.338,50.593 261.41,49.89 263.078,49.128C264.537,48.461 264.481,48.469 264.881,48.869M259.092,49.49C259.782,49.629 259.834,50.139 259.269,51.254C258.136,53.49 255.948,52.749 256.774,50.408C257.213,49.164 257.3,49.129 259.092,49.49M16.152,50.708C16.49,50.955 16.514,51.074 16.305,51.489C16.17,51.759 16.032,52.204 15.998,52.479C15.907,53.225 15.264,53.545 14.884,53.033C14.02,51.87 15.082,49.925 16.152,50.708M160.714,52.202C161.169,52.657 161.143,52.735 160.26,53.579C158.686,55.084 157.675,55.013 158.217,53.437C158.613,52.285 160.074,51.562 160.714,52.202M193.423,52.202C194.041,52.821 193.502,53.542 192.421,53.542C190.807,53.542 190.646,52.194 192.24,52.027C192.67,51.982 193.038,51.929 193.058,51.91C193.078,51.891 193.243,52.022 193.423,52.202M234.62,52.529C234.886,52.888 235.714,53.804 236.458,54.564C239.291,57.452 239.576,58.083 239.025,60.232C238.681,61.577 238.683,61.654 239.137,63.369C239.621,65.204 239.586,65.738 238.967,65.935C237.997,66.243 237.792,66.846 238.451,67.455C238.87,67.843 239.19,68.471 239.467,69.45C239.93,71.086 240.519,71.599 241.213,70.971C241.423,70.78 241.749,70.625 241.936,70.625C242.214,70.625 242.87,69.822 242.744,69.635C242.297,68.974 244.192,68.517 245.176,69.049C245.48,69.213 245.965,69.397 246.254,69.457C247.043,69.622 247.708,70.345 247.708,71.037C247.708,71.37 247.802,71.7 247.917,71.771C248.031,71.842 248.125,72.082 248.125,72.304C248.125,72.817 249.068,72.859 249.757,72.376C250.284,72.007 251.034,72.106 251.539,72.611C251.965,73.036 251.766,73.466 251.025,73.725C250.507,73.905 250.417,74.046 250.417,74.677C250.417,76.113 248.817,76.72 247.692,75.712C247.511,75.549 247.21,75.417 247.022,75.417C246.835,75.417 246.361,75.135 245.969,74.792C245.578,74.448 245.111,74.167 244.933,74.167C244.754,74.167 244.553,74.077 244.485,73.968C244.417,73.858 243.8,73.658 243.113,73.523C242.427,73.388 241.817,73.199 241.758,73.104C241.699,73.01 241.467,73.116 241.242,73.341C241.017,73.566 240.599,73.75 240.313,73.75C239.759,73.75 239.73,73.823 239.788,75.063C239.809,75.515 239.673,76.087 239.471,76.396C239.094,76.971 239.161,78.794 239.587,79.59C240.02,80.4 239.215,81.09 238.579,80.454C238.02,79.895 237.39,77.374 237.668,76.808C238.203,75.716 238.185,75.395 237.551,74.719C237.035,74.169 236.934,73.888 236.929,72.983C236.925,72.219 236.793,71.719 236.475,71.273C236.02,70.634 236.021,70.615 236.634,69.43C237.316,68.111 237.209,68.069 233.577,68.234L230.278,68.383L229.722,67.321C229.417,66.736 229.167,65.984 229.167,65.65C229.167,64.903 228.075,63.871 226.96,63.563C225.999,63.298 225.417,62.775 225.417,62.179C225.417,61.652 226.877,60.22 227.449,60.187C227.649,60.176 228.188,60.131 228.646,60.089C229.312,60.027 229.654,60.136 230.347,60.631C231.351,61.348 231.979,61.418 232.284,60.847C232.56,60.332 232.565,59.167 232.292,59.167C232.177,59.167 232.083,58.949 232.083,58.683C232.083,58.418 231.852,57.999 231.57,57.754C231.078,57.326 231.069,57.277 231.364,56.572C231.651,55.885 231.643,55.809 231.237,55.403C230.741,54.908 231.027,54.172 231.798,53.962C232.512,53.768 233.141,53.199 233.012,52.863C232.937,52.668 233.075,52.413 233.366,52.209C234.006,51.761 234.061,51.775 234.62,52.529M36.091,54.685C36.186,55.141 36.354,55.604 36.465,55.715C36.73,55.98 36.725,57.023 36.458,57.188C36.344,57.258 36.25,57.491 36.25,57.705C36.25,57.918 36.016,58.372 35.729,58.712C35.443,59.052 35.208,59.533 35.208,59.78C35.208,60.381 34.743,61.242 34.086,61.855C33.718,62.199 33.585,62.496 33.662,62.801C33.947,63.939 32.902,64.912 32.508,63.874C32.403,63.599 32.218,63.312 32.096,63.237C31.654,62.964 31.885,62.073 32.604,61.277L33.333,60.47L33.333,58.188C33.333,56.023 33.36,55.881 33.854,55.417C34.141,55.148 34.375,54.808 34.375,54.663C34.375,53.598 35.87,53.617 36.091,54.685M160.518,56.869C160.69,57.202 161.117,57.644 161.466,57.85C162.665,58.558 162.614,60.736 161.376,61.73L160.627,62.331L161.57,63.405C162.89,64.907 162.925,67.035 161.641,67.722C160.615,68.271 159.658,67.169 160.515,66.424C161.598,65.482 161.209,64.846 157.846,62.066C157.75,61.987 157.915,61.25 158.211,60.428C158.579,59.408 158.75,58.51 158.75,57.602C158.75,55.697 159.706,55.3 160.518,56.869M373.704,56.366C374.331,56.805 374.289,56.955 373.455,57.257C372.575,57.575 371.25,59.006 371.251,59.636C371.256,62.284 372.575,66.968 373.652,68.159L374.385,68.971L373.832,69.954C372.841,71.715 371.89,72.277 371.152,71.539C370.848,71.235 370.847,71.156 371.137,70.713C371.639,69.947 371.092,66.648 370.338,65.894C370.267,65.822 370.208,65.456 370.208,65.079C370.208,64.038 368.492,61.667 367.739,61.667C366.899,61.667 366.411,62.116 365.844,63.407C365.16,64.969 364.285,65.107 363.845,63.723C363.75,63.421 363.518,63.333 362.813,63.333C361.559,63.333 360.874,62.655 361.556,62.088C361.872,61.827 363.556,61.874 364.191,62.162C364.441,62.276 364.812,61.976 365.629,61.001C366.235,60.279 366.833,59.723 366.959,59.765C367.219,59.854 368.429,60.184 369.089,60.346C369.475,60.441 369.581,60.3 369.908,59.262C370.114,58.605 370.508,57.801 370.782,57.476C371.056,57.15 371.221,56.788 371.148,56.671C370.742,56.013 372.841,55.762 373.704,56.366M23.25,58.239C23.714,60.088 21.345,60.876 20.268,59.232C19.884,58.646 19.893,58.635 21.3,57.916C22.524,57.292 23.034,57.376 23.25,58.239M26.368,60.319C27.688,61.679 27.853,62.151 27.092,62.393C26.579,62.556 25.642,62.165 25.48,61.722C25.407,61.52 25.081,61.046 24.757,60.67C23.999,59.792 24.094,59.038 24.971,58.965C25.013,58.961 25.642,59.571 26.368,60.319M45.587,60.441C47.502,60.641 47.778,60.627 48.121,60.316C48.479,59.992 49.583,60.331 49.583,60.765C49.583,61.639 48.708,63.978 48.233,64.372C47.673,64.837 47.786,69.204 48.381,70.061C49.146,71.163 50.058,72.099 50.88,72.626C52.636,73.752 52.976,75.252 52.067,77.87C51.72,78.87 51.346,79.979 51.237,80.336C51.127,80.693 50.804,81.237 50.519,81.545C49.841,82.276 49.849,82.292 50.878,82.292C51.751,82.292 53.75,80.768 53.75,80.103C53.75,79.404 55.591,78.072 56.358,78.216C57.247,78.383 58.348,77.753 59.26,76.558C59.638,76.063 60.014,75.832 60.609,75.732C61.063,75.655 61.545,75.459 61.68,75.296C62.117,74.77 63.679,75.724 64.227,76.851C64.367,77.138 64.75,77.441 65.086,77.53C66.798,77.983 65.358,79.792 63.286,79.792C62.699,79.792 62.057,79.936 61.753,80.135C61.256,80.461 61.196,80.455 60.62,80.029L60.012,79.58L59.694,80.196C59.518,80.535 59.375,81.052 59.375,81.344C59.375,81.906 57.506,82.182 57.188,81.667C56.606,80.726 53.333,82.031 53.333,83.204C53.333,84.443 51.022,85.196 50.016,84.285C49.727,84.024 49.517,84.06 48.333,84.576C46.524,85.363 45.814,85.496 45.327,85.14C44.723,84.699 45.057,84.25 46.287,83.847C47.977,83.294 50.397,81.875 49.65,81.875C49.25,81.875 49.153,81.234 49.466,80.658C50.164,79.373 50.896,77.1 50.991,75.925C51.105,74.502 50.712,73.984 48.826,73.067C48.345,72.834 47.835,72.423 47.691,72.156C47.226,71.287 46.507,70.983 44.933,70.993C43.701,71.001 43.403,70.93 42.967,70.526C42.652,70.234 42.091,70.008 41.521,69.944C40.154,69.79 39.732,68.542 41.046,68.542C41.289,68.542 41.653,68.227 41.95,67.76C42.223,67.331 42.646,66.801 42.89,66.582C44.929,64.758 41.534,64.371 38.091,66.034C37.009,66.557 36.77,66.562 36.278,66.069C35.371,65.163 35.601,62.917 36.601,62.917C36.759,62.917 36.946,62.753 37.016,62.552C37.181,62.083 38.141,61.042 38.408,61.042C38.521,61.042 38.77,60.899 38.962,60.726C39.387,60.342 41.462,60 42.604,60.126C43.063,60.177 44.405,60.319 45.587,60.441M356.458,62.058C356.458,62.159 356.736,62.356 357.076,62.497C357.416,62.638 357.747,62.918 357.811,63.12C357.875,63.322 358.112,63.654 358.339,63.859C358.794,64.271 358.884,65.199 358.506,65.577C358.268,65.816 358.424,66.652 358.972,68.066C359.186,68.618 358.707,69.217 358.206,69.025C357.865,68.894 356.458,66.127 356.458,65.587C356.458,64.739 355.664,64.467 354.71,64.988C354.029,65.36 353.643,65.443 353.083,65.338C352.169,65.166 351.768,65.559 351.946,66.451C352.19,67.667 351.104,68.031 350.632,66.892C349.839,64.978 350.861,63.018 352.332,63.633L353.086,63.947L354.616,62.922C356.187,61.868 356.458,61.741 356.458,62.058M31.035,65.197C31.529,66.12 31.492,67.578 30.948,68.629C30.303,69.874 30.299,69.985 30.867,70.948C31.257,71.608 31.285,71.802 31.075,72.381C30.793,73.161 30.762,73.75 31.002,73.75C31.789,73.75 32.384,75.289 31.67,75.476C31.248,75.587 29.583,74.554 29.583,74.181C29.583,74.076 29.362,73.725 29.092,73.401C28.571,72.777 28.737,69.734 29.354,68.58C29.671,67.99 29.641,67.382 29.26,66.646C28.861,65.875 29.024,65.296 29.746,64.918C30.368,64.592 30.757,64.677 31.035,65.197M5.717,65.319C5.939,65.487 6.305,65.625 6.53,65.625C6.755,65.625 7.262,66.002 7.657,66.464C8.372,67.299 9.517,68.052 9.738,67.832C9.802,67.768 9.959,67.503 10.088,67.243C10.489,66.434 11.843,66.455 12.007,67.274C12.077,67.622 12.263,68.015 12.421,68.146C12.579,68.277 12.708,68.571 12.708,68.8C12.708,69.029 12.99,69.536 13.333,69.928C14.022,70.712 14.123,71.271 13.646,71.667C13.287,71.964 13.229,72.937 13.55,73.258C13.678,73.387 13.742,74.273 13.706,75.435L13.646,77.396L12.942,77.463C12.555,77.5 12.138,77.43 12.015,77.307C11.892,77.184 11.294,77.083 10.685,77.083C10.076,77.083 9.415,77.001 9.216,76.899C8.404,76.486 7.771,76.278 7.013,76.173C5.29,75.934 5.231,75.346 6.771,73.732C7.401,73.072 7.917,72.394 7.917,72.227C7.917,72.059 8.057,71.654 8.228,71.326C8.786,70.256 8.635,69.889 6.95,68.22C6.069,67.348 5.237,66.691 5.087,66.749C4.815,66.853 3.542,65.578 3.542,65.201C3.542,64.885 5.267,64.979 5.717,65.319M397.917,66.354C397.528,66.755 397.06,67.083 396.876,67.083C396.449,67.083 395,68.559 395,68.994C395,69.175 394.866,69.435 394.703,69.57C394.54,69.706 394.229,70.174 394.014,70.61L393.621,71.403L394.131,71.858L394.642,72.312L394.12,72.875C393.234,73.83 393.017,74.808 393.588,75.268C394.811,76.255 397.771,77.5 398.891,77.5L400,77.5L400,65.625L399.312,65.625C398.799,65.625 398.444,65.811 397.917,66.354M155.847,66.283C157.383,67.146 156.754,68.449 155.194,67.635C154.9,67.482 154.419,67.295 154.124,67.221C153.455,67.054 153.25,66.571 153.67,66.152C154.114,65.707 154.908,65.755 155.847,66.283M20.286,67.969C21.016,69.429 21.201,69.445 22.195,68.141C23.05,67.02 23.594,66.749 24.058,67.213C24.428,67.583 24.143,68.36 23.337,69.178C23.048,69.47 22.525,70.068 22.175,70.506C21.231,71.686 19.907,70.984 19.146,68.901C18.247,66.441 19.152,65.701 20.286,67.969M27.935,73.174C29.045,74.06 28.688,75.302 27.499,74.687C26.431,74.135 26.046,73.359 26.577,72.828C26.91,72.494 27.165,72.559 27.935,73.174M380.792,74.264C381.041,74.81 380.689,75.417 380.123,75.417C379.977,75.417 379.512,75.792 379.088,76.25C378.249,77.156 377.913,77.258 377.411,76.756C377.085,76.43 377.224,75.82 377.69,75.532C377.793,75.468 377.838,75.252 377.79,75.052C377.654,74.482 378.012,74.122 378.885,73.953C380.295,73.681 380.545,73.721 380.792,74.264M19.011,74.485C19.929,74.672 20.028,75.129 19.323,75.918C18.329,77.031 16.78,76.634 17.029,75.331C17.152,74.688 17.879,74.105 18.332,74.286C18.504,74.355 18.81,74.444 19.011,74.485M227.785,74.553C228.389,75.22 227.68,76.023 226.719,75.763C226.518,75.708 226.107,75.609 225.804,75.542C225.126,75.392 224.912,74.909 225.336,74.485C225.797,74.024 227.345,74.067 227.785,74.553M364.857,76.048C365.291,76.28 365.736,76.415 365.846,76.347C366.143,76.163 366.819,76.429 366.955,76.783C367.137,77.258 366.339,77.916 365.573,77.923C364.758,77.931 364.343,78.221 363.89,79.097C363.428,79.991 362.605,80.158 361.364,79.609C360.18,79.085 360.184,78.914 361.413,77.388C362.879,75.569 363.507,75.324 364.857,76.048M214.673,76.786C215.858,77.972 213.911,83.247 212.131,83.672C211.11,83.916 210.99,84.15 211.55,84.815C211.827,85.145 212.108,85.579 212.173,85.78C212.238,85.981 212.624,86.372 213.032,86.649C214.42,87.592 214.396,88.452 212.983,88.371C212.22,88.327 212.164,88.37 211.616,89.424C210.585,91.404 209.603,92.087 209.274,91.051C209.114,90.548 209.829,88.966 210.496,88.349C211.353,87.556 211.24,86.695 210.113,85.427C209.602,84.852 209.086,84.015 208.965,83.568C208.293,81.071 205.403,81.016 203.012,83.454C201.645,84.848 201.483,84.931 200.82,84.576C200.311,84.304 200.301,83.826 200.799,83.56C201.009,83.448 201.408,83.02 201.684,82.609C202.855,80.872 205.956,79.857 208.218,80.471C209.237,80.748 209.476,80.982 210.24,82.448C211.043,83.991 213.542,80.694 213.542,78.091C213.542,77.261 213.9,76.458 214.271,76.458C214.312,76.458 214.493,76.606 214.673,76.786M230,77.5C230,77.615 230.188,77.708 230.417,77.708C230.646,77.708 230.833,77.833 230.833,77.985C230.833,78.557 231.785,79.182 232.625,79.162C234.522,79.116 235.89,79.949 235.405,80.856C235.154,81.325 235.042,81.335 234.179,80.972C233.779,80.804 233.174,80.742 232.645,80.816C231.101,81.031 230,80.865 230,80.417C230,80.201 229.906,79.967 229.792,79.896C229.677,79.825 229.583,79.544 229.583,79.271C229.583,78.998 229.49,78.717 229.375,78.646C229.089,78.469 229.113,77.845 229.417,77.542C229.721,77.237 230,77.218 230,77.5M388.524,78.254C389.881,79.001 389.916,79.008 391.835,78.908C394.592,78.764 394.703,78.873 394.639,81.654C394.588,83.899 394.285,84.671 393.259,85.171C391.604,85.977 391.219,86.094 390.988,85.863C390.857,85.732 390.174,85.625 389.47,85.625C388.454,85.625 388.112,85.539 387.813,85.208C387.605,84.979 387.273,84.792 387.075,84.792C386.877,84.792 386.446,84.652 386.118,84.48C385.789,84.309 385.288,84.169 385.004,84.168C382.581,84.162 381.3,82.307 383.496,81.984C384.519,81.834 385.416,81.207 385.418,80.641C385.419,80.46 385.559,80.044 385.73,79.716C385.902,79.388 386.042,78.867 386.042,78.56C386.042,77.31 386.668,77.233 388.524,78.254M21.747,78.027C22.373,78.653 21.457,79.393 20.451,79.073C19.531,78.781 19.913,77.708 20.938,77.708C21.208,77.708 21.572,77.852 21.747,78.027M346.05,80.094C345.903,80.272 345.656,80.417 345.502,80.417C345.348,80.417 344.858,80.909 344.413,81.511C343.969,82.112 343.45,82.733 343.261,82.89C343.072,83.047 342.917,83.369 342.917,83.606C342.917,83.842 342.745,84.229 342.535,84.466C340.44,86.829 341.081,91.76 343.336,90.625C343.564,90.51 343.938,90.323 344.167,90.208C344.396,90.094 344.747,89.917 344.948,89.816C345.148,89.715 345.562,89.516 345.867,89.374C346.917,88.886 348.262,86.386 348.951,83.646L349.421,81.771L348.914,80.833C348.343,79.779 346.67,79.347 346.05,80.094M42.798,82.619C44.022,83.843 41.297,85.782 39.592,84.9C38.641,84.409 38.712,83.333 39.695,83.333C39.855,83.333 40.082,83.152 40.201,82.931C40.542,82.293 42.265,82.086 42.798,82.619M237.287,83.742C237.563,84.258 237.29,85.553 236.69,86.57C236.448,86.98 236.25,87.632 236.25,88.018C236.25,89.38 235.654,89.612 234.161,88.831C232.783,88.111 232.542,86.875 233.78,86.875C233.988,86.875 234.304,86.65 234.484,86.376C234.664,86.101 234.994,85.829 235.217,85.771C235.63,85.663 235.705,85.532 235.92,84.546C236.152,83.483 236.91,83.037 237.287,83.742M14.131,88.592L15.033,89.636L14.458,90.014C13.63,90.557 13.176,90.209 11.812,87.986C11.73,87.852 11.808,87.597 11.984,87.42C12.431,86.974 13.004,87.287 14.131,88.592M46.756,87.41C47.164,87.819 46.883,88.448 46.198,88.656C45.94,88.734 45.201,89.116 44.556,89.503C43.911,89.891 43.25,90.208 43.087,90.208C42.609,90.208 41.056,91.451 40.719,92.103C40.366,92.785 39.524,93.091 39.06,92.706C38.648,92.365 38.666,92.24 39.219,91.608C39.477,91.312 39.858,90.827 40.067,90.529C40.508,89.898 41.801,89.037 42.614,88.833C42.925,88.755 43.225,88.517 43.281,88.304C43.339,88.079 43.568,87.917 43.826,87.916C44.071,87.916 44.74,87.733 45.313,87.51C45.885,87.286 46.371,87.098 46.391,87.093C46.412,87.088 46.576,87.23 46.756,87.41M384.256,87.619C384.746,88.109 384.66,88.432 383.844,89.147C382.845,90.025 382.173,89.76 382.395,88.576C382.634,87.297 383.492,86.856 384.256,87.619M371.964,88.452C372.344,88.832 372.119,89.438 371.468,89.786C370.869,90.107 370.33,89.512 370.657,88.892C371.082,88.084 371.467,87.955 371.964,88.452M385.625,90.4C385.625,90.505 385.675,90.72 385.735,90.878C385.9,91.307 384.437,93.062 383.702,93.319C382.501,93.738 382.083,93.624 382.083,92.876C382.083,92.111 382.967,91.042 383.6,91.042C383.818,91.042 384.235,90.854 384.526,90.625C385.083,90.187 385.625,90.076 385.625,90.4M376.837,91.563C377.332,92.075 377.685,92.577 377.623,92.678C377.561,92.779 377.704,93.037 377.941,93.251C378.993,94.203 378.738,95 377.381,95C376.988,95 376.667,95.091 376.667,95.203C376.667,95.548 375.4,96.083 374.888,95.954C373.824,95.687 373.513,94.753 374.394,94.473C374.932,94.302 374.894,93.856 374.271,93.039C373.537,92.078 373.684,91.682 375.054,90.924C375.77,90.528 375.873,90.565 376.837,91.563M11.651,91.763C11.974,91.93 12.635,92.539 13.118,93.117C13.972,94.137 14.029,94.167 15.109,94.167C16.912,94.167 17.466,95.371 15.815,95.702C13.852,96.094 13.52,95.952 12.011,94.072C11.684,93.666 11.317,93.333 11.194,93.333C10.437,93.333 10.005,92.317 10.536,91.786C10.935,91.387 10.924,91.387 11.651,91.763M74.312,94.188C75.164,94.153 75.485,94.235 75.822,94.572C76.139,94.889 76.519,95 77.284,95C78.08,95 78.367,95.09 78.526,95.388C78.934,96.15 77.824,96.875 76.249,96.875C75.805,96.875 75.383,96.969 75.313,97.083C75.242,97.198 74.92,97.292 74.597,97.292C74.274,97.292 73.893,97.432 73.75,97.604C73.607,97.776 73.373,97.917 73.23,97.917C72.9,97.917 71.014,100.05 70.705,100.772C70.509,101.231 70.549,101.427 70.966,102.041C71.571,102.933 71.659,104.77 71.122,105.307C70.538,105.89 69.896,105.268 69.896,104.12C69.896,102.401 68.6,102.007 66.99,103.235C65.997,103.992 65.369,103.909 64.583,102.917C64.22,102.458 63.786,102.083 63.618,102.083C63.193,102.083 63.379,100.027 63.881,99.177C64.35,98.384 64.977,98.194 67.639,98.04C70.461,97.876 70.417,97.9 70.417,96.516C70.417,94.961 71.632,93.576 72.635,93.988C72.962,94.122 73.716,94.212 74.312,94.188M54.535,111.875C55.913,112.715 55.882,113.948 54.454,115.203C53.825,115.755 53.125,115.871 53.125,115.423C53.125,115.336 52.844,114.912 52.5,114.479C50.958,112.539 52.464,110.612 54.535,111.875M41.093,112.848C41.699,113.208 41.651,113.755 40.956,114.387C40.48,114.82 40.194,115.302 40.107,115.819C39.829,117.462 38.952,118.297 38.246,117.591C37.951,117.296 37.95,117.206 38.243,116.639C38.694,115.768 38.573,115.443 37.525,114.705C35.242,113.097 35.686,112.386 38.837,112.608C39.992,112.689 41.007,112.797 41.093,112.848M60.119,115.308C60.603,115.792 60.668,116.848 60.224,117.033C60.154,117.062 60.132,117.791 60.175,118.653C60.295,121.017 59.756,121.912 58.416,121.576C57.776,121.415 57.085,120.314 57.084,119.453C57.084,119.095 56.839,118.365 56.54,117.831C55.391,115.774 58.437,113.626 60.119,115.308" style="fill:rgb(33,52,43);"/>
    </g>
</svg>
