<?xml version="1.0" encoding="UTF-8" standalone="no"?>
<!DOCTYPE svg PUBLIC "-//W3C//DTD SVG 1.1//EN" "http://www.w3.org/Graphics/SVG/1.1/DTD/svg11.dtd">
<svg width="100%" height="100%" viewBox="0 0 1920 1200" version="1.1" xmlns="http://www.w3.org/2000/svg" xmlns:xlink="http://www.w3.org/1999/xlink" xml:space="preserve" xmlns:serif="http://www.serif.com/" style="fill-rule:evenodd;clip-rule:evenodd;stroke-linejoin:round;stroke-miterlimit:2;">
    <g id="path0" transform="matrix(3.28289,0,0,3.28289,368.625,0)">
        <path d="M34.889,4.519L34.889,9.037L27.193,16.679L27.332,17.986C27.505,19.622 28.847,21.729 29.715,21.729C30.267,21.729 30.321,21.855 30.139,22.724C29.925,23.743 28.011,26.014 27.366,26.014C27.169,26.014 26.835,26.22 26.626,26.473C26.357,26.797 25.644,26.932 24.197,26.932C22.322,26.932 22.076,27.009 21.27,27.85C20.502,28.652 20.178,28.768 18.708,28.768C17.437,28.768 16.863,28.921 16.363,29.39C15.774,29.944 15.657,29.961 15.311,29.543C14.394,28.438 12.811,28.945 10.779,30.995L8.875,32.916L8.875,36.007C8.875,38.382 8.982,39.187 9.334,39.48C10.398,40.362 7.651,44.985 3.497,49.304C0.216,52.715 -0.242,53.452 0.296,54.457C1.291,56.317 2.57,55.861 5.752,52.511L7.955,50.191L12.416,50.191L14.012,51.808C16.255,54.079 16.318,55.794 14.231,57.842C12.625,59.418 12.572,59.778 13.734,61.179C14.574,62.191 14.582,62.235 14.032,62.786C13.232,63.585 13.26,65.824 14.078,66.565C14.415,66.869 14.69,67.356 14.69,67.646C14.69,67.936 14.897,68.344 15.149,68.554C15.408,68.769 15.608,69.436 15.608,70.087C15.608,71.389 16.045,72.367 17.089,73.406L17.806,74.118L18.467,73.499C20.996,71.13 24.111,71.883 23.923,74.817C23.792,76.868 24.429,77.568 25.507,76.556C26.006,76.088 26.596,75.899 27.566,75.899C28.313,75.899 29.372,75.771 29.917,75.614C32.178,74.966 32.256,76.867 30.011,77.88C29.086,78.297 28.768,78.618 28.768,79.137C28.768,80.549 27.736,81.069 26.353,80.354C25.883,80.111 24.422,79.814 23.107,79.695L20.716,79.478L20.922,80.511C21.036,81.079 21.539,81.968 22.041,82.485C22.543,83.003 22.953,83.58 22.953,83.768C22.953,84.372 25.835,86.909 26.526,86.913C26.892,86.915 27.907,86.751 28.781,86.55C31.869,85.837 31.948,87.43 28.912,89.206C27.832,89.838 26.789,90.545 26.596,90.778C26.068,91.414 24.946,91.289 23.719,90.457C22.277,89.478 20.124,89.237 16.462,89.645C14.827,89.828 13.288,89.977 13.041,89.977C12.4,89.977 11.626,90.836 11.818,91.335C12.01,91.837 13.157,92.321 14.843,92.612C15.516,92.728 16.894,93.13 17.904,93.506C18.914,93.882 20.357,94.292 21.11,94.418C21.864,94.543 22.786,94.845 23.16,95.09C23.603,95.38 25.049,95.594 27.331,95.707C31.627,95.918 32.348,95.525 31.993,93.16C31.782,91.755 32.49,91.106 32.827,92.395C33.146,93.613 34.219,93.778 35.123,92.749C35.574,92.234 36.142,91.813 36.384,91.813C36.626,91.813 37.497,91.382 38.319,90.855C39.813,89.896 39.813,89.896 40.488,90.497C40.859,90.828 42.402,92.151 43.917,93.437C45.432,94.723 47.131,96.183 47.691,96.682C48.724,97.602 49.389,97.647 49.706,96.82C49.914,96.278 49.092,94.568 48.623,94.568C47.952,94.568 44.07,90.5 44.07,89.796C44.07,89.415 43.717,88.825 43.285,88.485C42.672,88.003 42.52,87.645 42.596,86.856L42.693,85.845L45.324,85.758C47.395,85.689 48.038,85.77 48.346,86.14C48.83,86.724 49.273,86.748 49.273,86.189C49.273,85.957 49.48,85.596 49.732,85.386C50.041,85.13 50.191,85.116 50.191,85.343C50.191,86.341 52.435,89.1 53.816,89.8C54.621,90.208 55.46,90.759 55.68,91.024C56.548,92.07 58.454,90.756 58.454,89.112C58.454,88.772 58.799,88.085 59.22,87.585C60.116,86.52 60.249,84.642 59.527,83.247C59.275,82.76 58.929,81.374 58.758,80.166C58.368,77.415 58.378,77.429 56.814,77.429C55.392,77.429 54.791,77.03 54.765,76.067C54.741,75.189 51.443,72.496 49.807,72.019C47.945,71.476 46.923,70.339 47.309,69.241C47.678,68.193 48.519,68.012 49.377,68.799C49.741,69.132 50.74,69.756 51.597,70.184C52.455,70.613 53.386,71.315 53.668,71.744C53.949,72.174 54.693,72.79 55.322,73.115C55.951,73.44 56.639,73.993 56.85,74.343C57.149,74.838 57.544,74.981 58.61,74.981C59.973,74.981 59.985,74.99 59.985,76.034C59.985,76.613 60.104,77.161 60.251,77.251C60.397,77.342 60.6,77.935 60.702,78.57C60.965,80.201 61.578,80.927 63.1,81.405C65.653,82.208 65.903,82.728 66.378,88.217C66.556,90.264 66.758,91.057 67.236,91.583C67.58,91.962 67.943,92.617 68.042,93.037C68.231,93.837 70.482,94.929 72.839,95.366C73.458,95.481 74.4,96.032 75.071,96.672L76.233,97.78L76.175,100.184C76.114,102.717 76.222,102.943 77.676,103.33C78.152,103.457 78.599,103.319 79.053,102.904C79.422,102.566 80.034,102.195 80.412,102.081C81.116,101.867 81.333,101.338 81.478,99.482C81.548,98.586 81.704,98.392 82.518,98.182C83.719,97.873 84.348,96.516 84.229,94.491C84.064,91.715 84.085,90.416 84.355,86.645C84.69,81.972 84.514,81.736 80.118,80.938C78.634,80.669 78.099,80.057 78.718,79.336C79.568,78.346 79.563,78.115 78.669,76.99C77.491,75.507 77.167,73.201 77.885,71.407L78.393,70.137L80.949,70.13C83.87,70.122 85.225,69.607 85.743,68.31C85.924,67.855 86.394,66.794 86.786,65.953C87.179,65.111 87.59,64.044 87.7,63.581C87.929,62.623 88.06,62.582 88.888,63.208C89.271,63.498 90.2,63.657 91.505,63.657C92.693,63.657 93.682,63.812 93.902,64.032C94.198,64.328 94.404,64.328 94.877,64.032C95.674,63.535 95.608,63.515 96.903,64.652C97.641,65.3 98.081,65.513 98.164,65.264C98.234,65.054 98.754,64.881 99.319,64.881C100.532,64.881 100.917,64.433 100.319,63.714C98.59,61.638 98.862,61.189 101.966,60.997C106.486,60.717 108.952,59.653 108.952,57.983C108.952,56.388 111.563,56.909 113.525,58.896C115.041,60.431 115.543,61.317 116.311,63.81C116.769,65.298 118.515,67.716 119.578,68.334C121.546,69.477 122.298,68.453 122.498,64.363C122.632,61.613 122.983,60.905 124.215,60.898C125.478,60.891 127.314,58.857 127.314,57.465C127.314,57.137 127.59,56.518 127.927,56.09C128.263,55.662 128.543,55.02 128.548,54.664C128.554,54.308 128.76,53.75 129.007,53.423C129.255,53.096 129.457,52.522 129.457,52.147C129.457,50.914 130.593,48.837 132.026,47.45C132.94,46.565 133.435,45.824 133.435,45.342C133.435,44.86 134.13,43.823 135.414,42.388C137.006,40.609 137.433,39.914 137.595,38.833C137.724,37.973 138.11,37.158 138.669,36.565C139.444,35.743 139.565,35.34 139.747,32.967L139.953,30.294L141.867,28.613C143.566,27.121 143.933,26.932 145.126,26.932C146.28,26.932 146.632,26.767 147.604,25.771C149.052,24.289 149.03,23.98 147.357,22.338L145.977,20.983L148.428,18.519L150.88,16.055L150.88,9.612L149.656,8.416L148.432,7.221L148.432,0L34.889,0L34.889,4.519M351.033,0.269C351.033,0.416 351.239,0.709 351.492,0.918C352.06,1.389 352.086,1.836 351.545,1.836C350.722,1.836 349.684,3.365 349.516,4.826C349.357,6.196 349.256,6.326 347.36,7.591C345.156,9.063 343.141,10.92 340.678,13.75L339.045,15.626L338.02,14.726C335.751,12.734 334.296,13.168 333.144,16.181C332.202,18.647 332.201,18.684 333.006,19.708C333.629,20.501 333.632,20.546 333.096,21.356C332.441,22.344 330.904,25.257 330.499,26.275C330.251,26.898 330.387,27.154 331.517,28.186L332.821,29.378L325.32,36.954L317.82,44.529L317.976,46.672C318.071,47.966 318.22,48.602 318.353,48.279C318.474,47.984 318.8,47.743 319.077,47.743C319.542,47.743 319.543,47.801 319.086,48.497C317.805,50.453 319.247,49.854 320.62,47.859C322.208,45.554 322.891,45.318 324.435,46.541C325.954,47.744 325.954,47.739 323.948,51.582L322.265,54.806L322.855,55.963C324.224,58.647 326.968,60.255 328.201,59.096C328.816,58.519 329.382,58.416 332.88,58.249C337.925,58.007 338.186,58.076 338.901,59.828C339.384,61.014 339.716,61.339 341.12,62.003C342.991,62.888 343.292,63.828 342.164,65.263C340.779,67.024 340.891,68.536 342.409,68.563C344.153,68.593 345.271,70.831 344.19,72.126C341.682,75.131 341.281,82.09 343.548,83.246C344.046,83.5 345.279,84.301 346.289,85.026L348.125,86.345L350.65,86.136C353.498,85.899 353.44,85.84 352.671,88.189C352.193,89.652 352.123,89.721 351.273,89.551C349.65,89.226 348.585,90.065 348.585,91.668C348.585,92.871 348.504,93.037 347.917,93.037C346.906,93.037 344.697,95.569 344.455,97.005C344.174,98.67 342.158,99.993 342.158,98.514C342.158,95.613 335.082,97.396 333.25,100.758C332.531,102.078 334.19,104.055 336.017,104.055C337.463,104.055 337.425,105.974 335.969,106.481C333.675,107.281 332.439,109.901 333.741,111.203C334.524,111.986 334.336,113.236 333.435,113.236C331.399,113.236 331.104,115.058 332.992,115.967C333.544,116.232 334.033,116.712 334.078,117.031C334.181,117.766 334.738,118.122 335.789,118.128C337.615,118.139 337.106,119.199 335.119,119.523C334.529,119.62 333.772,119.757 333.435,119.827C331.592,120.215 327.812,124.424 328.259,125.59C328.664,126.645 330.12,126.172 330.602,124.828C330.714,124.517 330.987,124.626 331.652,125.249C333.083,126.588 335.661,125.842 337.447,123.572C338.439,122.31 339.867,121.701 340.454,122.288C340.935,122.769 340.647,123.948 340.048,123.948C338.48,123.948 337.088,129.006 338.318,130.236C339.688,131.606 340.984,130.902 340.726,128.928C340.314,125.763 344.963,124.454 348.119,126.846C350.896,128.95 354.363,128.617 354.399,126.243C354.418,125.058 354.85,124.746 355.704,125.306C356.781,126.011 357.46,125.315 357.46,123.504C357.46,122.34 357.563,122.143 358.342,121.821C361.674,120.44 360.076,116.931 356.104,116.905C354.173,116.892 353.822,116.405 354.534,114.721C354.965,113.702 353.535,112.859 351.746,113.079C350.485,113.235 349.914,113.146 348.928,112.643C348.06,112.201 347.106,112.012 345.735,112.012C341.577,112.012 340.372,110.697 343.138,109.177C345.919,107.649 346.403,107.26 346.79,106.24C347.011,105.659 346.944,105.35 346.488,104.851C346.073,104.396 345.974,104.029 346.15,103.596C346.287,103.259 346.409,102.417 346.421,101.723C346.444,100.331 346.973,100.088 350.003,100.08C352.184,100.074 352.913,101.854 351.339,103.34C350.522,104.111 350.421,104.403 350.421,105.999C350.421,107.558 350.318,107.873 349.639,108.407C347.975,109.716 348.666,110.31 352.054,110.482L355.064,110.635L355.88,111.835C358.514,115.715 367.559,115.362 367.559,111.379C367.559,111.057 367.835,110.621 368.171,110.411C368.508,110.201 368.783,109.739 368.783,109.385C368.783,108.584 369.59,107.831 370.696,107.598C371.159,107.501 371.882,107.35 372.303,107.263C372.818,107.156 373.068,106.899 373.068,106.477C373.068,104.794 374.633,104.138 376.556,105.015C377.585,105.483 377.708,105.95 377.078,106.992C376.112,108.59 380.193,115.073 382.165,115.073C383.776,115.073 383.741,110.936 382.103,107.789C381.571,106.768 381.575,104.895 382.119,99.747C382.284,98.194 382.215,97.913 381.357,96.642C380.838,95.873 380.413,95.051 380.413,94.814C380.413,94.218 379.786,93.65 379.128,93.65C378.769,93.65 378.577,93.421 378.577,92.995C378.577,92.635 378.353,92.176 378.078,91.975C377.63,91.648 377.676,91.479 378.53,90.299C379.053,89.577 379.57,88.486 379.679,87.875C379.788,87.264 380.115,86.488 380.405,86.151C381.353,85.054 381.369,84.806 380.58,83.393C379.683,81.787 379.619,81 380.26,79.466C380.513,78.861 380.719,77.964 380.719,77.472C380.719,76.979 380.915,76.502 381.154,76.41C381.393,76.318 382.18,75.236 382.904,74.005L384.22,71.767L384.151,68.606C384.081,65.394 383.417,62.969 382.369,62.099C381.692,61.537 381.868,60.277 382.737,59.473C383.272,58.976 383.462,58.567 383.32,58.213C383.204,57.925 383.051,57.55 382.98,57.379C382.65,56.584 386.778,53.125 387.607,53.503C388.043,53.701 388.854,53.864 389.409,53.864C390.246,53.864 390.722,54.181 392.177,55.707C394.637,58.286 395.855,58.883 396.777,57.961C397.224,57.514 397.226,57.399 396.799,56.748C396.54,56.352 396.327,55.541 396.327,54.946C396.327,54.188 396.19,53.864 395.868,53.864C395.616,53.864 395.409,53.726 395.409,53.558C395.409,53.389 394.882,53.252 394.239,53.252C392.003,53.252 390.989,50.551 392.257,47.972C392.742,46.986 392.289,46.813 391.378,47.637C390.914,48.058 390.819,48.068 390.819,47.696C390.819,47.045 391.493,46.28 392.171,46.162C392.892,46.036 393.198,45.295 392.527,45.295C392.018,45.295 391.923,44.701 392.243,43.509C392.386,42.973 392.5,42.896 392.697,43.203C393.039,43.732 393.602,42.972 393.352,42.32C393.262,42.084 393.533,41.521 393.955,41.068C394.968,39.982 395.496,38.922 395.29,38.387C395.199,38.149 395.292,37.817 395.496,37.65C395.701,37.483 396.323,36.982 396.878,36.537C398.151,35.517 399.381,33.121 399.409,31.609C399.427,30.683 399.484,30.574 399.694,31.064C399.915,31.578 399.96,31.517 399.978,30.688C399.994,29.958 399.8,29.57 399.235,29.199C398.594,28.779 398.47,28.458 398.47,27.225C398.47,24.991 397.947,24.569 396.017,25.25C394.165,25.904 393.879,25.567 393.879,22.733C393.879,20.575 393.933,20.395 394.815,19.57C396.537,17.962 395.015,16.778 392.045,17.416C389.135,18.04 373.449,17.844 371.997,17.165C370.031,16.247 365.484,11.453 365.944,10.785C368.437,7.163 368.712,5.976 367.248,5.14C366.361,4.634 366.335,4.553 366.335,2.31L366.335,0L358.684,0C354.476,0 351.033,0.121 351.033,0.269M375.149,29.135C375.812,29.798 374.865,34.724 373.888,35.702C373.773,35.816 373.68,36.162 373.68,36.47C373.68,37.69 371.353,38.888 370.781,37.963C370.681,37.802 371.086,36.371 371.681,34.783C373.021,31.205 372.876,30.29 371.122,31.272C370.809,31.447 370.62,31.442 370.62,31.257C370.62,31.094 370.527,30.72 370.415,30.426C370.293,30.109 370.332,29.967 370.51,30.078C370.676,30.18 371.203,29.927 371.681,29.516C372.632,28.699 374.507,28.493 375.149,29.135M391.953,32.208C391.88,32.588 391.817,32.349 391.814,31.676C391.811,31.002 391.87,30.691 391.947,30.983C392.024,31.276 392.026,31.827 391.953,32.208M398.097,31.829C398.281,34.097 396.029,36.969 394.39,36.558C391.862,35.924 394.152,30.439 396.851,30.662C397.935,30.751 398.016,30.828 398.097,31.829M360.826,31.523C360.826,31.691 360.31,31.827 359.679,31.824C358.825,31.82 358.649,31.743 358.99,31.523C359.593,31.133 360.826,31.133 360.826,31.523M382.65,33.074C382.735,33.399 382.658,34.143 382.478,34.727L382.152,35.789L381.589,35.139C380.923,34.371 380.929,34.433 381.382,33.18C381.763,32.128 382.389,32.076 382.65,33.074M360.381,32.718C359.804,32.943 359.803,32.964 360.348,33.268C360.798,33.52 360.863,33.763 360.665,34.466C360.529,34.951 360.406,35.485 360.392,35.651C360.346,36.212 357.231,36.864 356.701,36.424C355.635,35.54 356.999,33.683 358.747,33.641C359.301,33.627 359.591,33.55 359.39,33.468C358.742,33.204 359.335,32.44 360.17,32.462C360.869,32.481 360.897,32.516 360.381,32.718M337.962,45.601C338.05,45.937 337.997,46.213 337.844,46.213C337.692,46.213 337.567,45.99 337.567,45.718C337.567,45.374 337.381,45.272 336.955,45.383C336.618,45.471 336.343,45.418 336.343,45.266C336.343,44.686 337.801,44.987 337.962,45.601M344.58,45.098C344.51,45.159 344.04,45.301 343.535,45.414C342.864,45.564 342.74,45.535 343.076,45.309C343.489,45.029 344.888,44.834 344.58,45.098M352.869,47.131C352.869,47.299 352.379,47.437 351.78,47.437C351.132,47.437 350.767,47.313 350.88,47.131C350.984,46.963 351.474,46.825 351.969,46.825C352.464,46.825 352.869,46.963 352.869,47.131M355.297,47.949C355.126,48.399 355.056,48.947 355.14,49.168C355.344,49.699 354.573,51.843 353.773,52.966C353.08,53.939 352.245,54.09 351.093,53.451L350.387,53.059L351.169,52.703C351.64,52.488 351.951,52.466 351.951,52.646C351.951,52.811 352.226,52.946 352.563,52.946C352.985,52.946 353.175,52.742 353.175,52.288C353.175,51.25 354.818,47.138 355.233,47.134C355.513,47.132 355.53,47.338 355.297,47.949M352.181,48.268C351.718,48.338 350.96,48.338 350.497,48.268C350.034,48.198 350.413,48.141 351.339,48.141C352.265,48.141 352.643,48.198 352.181,48.268M334.14,49.419C335.069,48.12 335.288,49.128 334.507,51.109C333.762,52.998 333.763,52.946 334.462,52.946C334.836,52.946 335.135,52.605 335.337,51.951C335.605,51.086 335.677,51.032 335.892,51.54C336.464,52.89 334.552,54.396 333.3,53.582C332.942,53.35 332.926,53.145 333.217,52.509C333.432,52.036 333.456,51.721 333.276,51.721C333.111,51.721 332.974,51.48 332.972,51.186C332.968,50.728 332.924,50.717 332.67,51.109C332.211,51.82 332.31,51.118 332.879,49.628C333.362,48.363 333.411,48.324 333.66,48.999C333.806,49.394 334.022,49.583 334.14,49.419M352.869,49.594C352.869,51.24 350.355,52.811 348.936,52.052C347.925,51.511 348.303,50.104 349.599,49.581C350.544,49.2 352.869,49.21 352.869,49.594M62.844,50.767C64.396,52.319 63.303,53.431 61.17,52.469C59.598,51.76 58.979,50.927 59.417,50.109C59.876,49.25 61.672,49.595 62.844,50.767M344.147,50.803C343.272,51.77 341.081,51.496 341.699,50.497C341.803,50.329 342.521,50.191 343.294,50.191C344.681,50.191 344.693,50.2 344.147,50.803M346.136,51.072C346.136,51.22 345.931,51.511 345.68,51.719C345.43,51.927 345.297,52.213 345.384,52.355C345.635,52.76 344.139,53.594 343.56,53.372C343.274,53.262 343.113,52.984 343.202,52.753C343.307,52.479 343.127,52.324 342.684,52.306C342.154,52.284 342.215,52.217 342.961,52.001C343.487,51.849 344.089,51.517 344.299,51.264C344.707,50.772 346.136,50.623 346.136,51.072M364.441,53.044C364.737,53.122 364.598,53.196 364.116,53.216C363.236,53.253 363.125,53.059 363.501,52.129C363.707,51.622 363.738,51.632 363.826,52.238C363.88,52.607 364.157,52.969 364.441,53.044M62.455,57.617C62.705,58.546 62.697,59.032 62.425,59.54C62.151,60.054 62.144,60.608 62.4,61.801C63.239,65.711 61.871,67.403 59.051,65.945C57.847,65.322 57.912,64.678 59.244,64.043C60.238,63.569 60.321,63.434 60.137,62.594C60.026,62.085 59.937,61.202 59.941,60.634C59.944,60.065 59.745,59.291 59.497,58.914C59.077,58.273 59.12,58.157 60.144,57.132C61.457,55.82 62.002,55.934 62.455,57.617M80.293,59.526C81.102,60.335 80.201,62.414 79.036,62.428C77.351,62.449 77.348,59.607 79.033,59.283C79.413,59.21 79.749,59.131 79.779,59.108C79.809,59.085 80.041,59.273 80.293,59.526M233.688,59.335C233.596,59.483 232.69,59.665 231.673,59.738C230.008,59.859 229.696,59.996 228.531,61.119C226.581,63 225.664,63.351 222.704,63.351C220.116,63.351 220.051,63.372 218.22,64.801C218.141,64.862 218.115,65.846 218.161,66.987L218.246,69.062L216.927,70.184C216.202,70.802 215.367,71.514 215.073,71.767C214.763,72.033 214.537,72.654 214.537,73.242C214.537,74.043 214.074,74.834 212.343,76.991C211.137,78.494 209.725,80.361 209.206,81.139C206.725,84.862 205.852,86.045 205.22,86.542C204.843,86.839 204.367,87.396 204.161,87.78C203.817,88.422 203.601,88.473 201.464,88.416C198.949,88.35 198.487,88.608 198.125,90.283C197.898,91.335 197.339,92.455 196.576,93.387C196.377,93.63 196.161,95.839 196.055,98.699C195.956,101.393 195.789,104.809 195.686,106.291C195.332,111.362 195.778,112.434 198.385,112.778C200.454,113.052 201.989,114.374 201.989,115.883C201.989,117.604 202.575,118.388 204.609,119.389C206.88,120.507 207.312,120.379 209.782,117.851C211.662,115.927 213.313,115.806 213.313,117.592C213.313,117.9 213.554,118.227 213.849,118.318C214.525,118.527 214.762,118.675 216.374,119.893C217.42,120.684 217.981,120.888 219.114,120.888C220.69,120.888 222.004,121.914 223.047,123.958C223.332,124.518 223.943,125.253 224.406,125.592L225.246,126.208L226.207,125.497C227.126,124.818 227.183,124.811 227.485,125.351C228.79,127.683 232.107,128.073 232.406,125.929C232.459,125.553 233.081,125.023 234.057,124.523C236.107,123.474 236.979,123.243 236.763,123.808C236.37,124.83 237.883,125.481 238.886,124.723C239.952,123.916 240.857,124.122 240.857,125.172C240.857,125.842 240.712,126.091 240.321,126.092C238.418,126.098 237.492,126.716 236.529,128.624C233.455,134.714 232.87,137.316 234.277,138.638C234.698,139.033 235.042,139.535 235.042,139.752C235.042,140.287 236.054,140.795 236.532,140.499C237.314,140.016 237.896,136.353 237.357,135.31C236.591,133.828 236.731,132.935 237.786,132.567C238.772,132.223 239.215,131.192 238.906,129.959C238.635,128.879 239.629,128.102 240.997,128.324C241.587,128.42 242.149,128.37 242.247,128.212C242.344,128.055 242.897,127.927 243.476,127.927C245.875,127.927 246.464,125.828 244.529,124.172C243.066,122.919 242.997,122.215 244.223,121.041C245.737,119.59 244.798,118.439 242.101,118.439L240.866,118.439L240.914,114.957C240.956,111.895 241.048,111.332 241.679,110.29C242.074,109.638 242.48,108.864 242.581,108.569C242.682,108.275 242.886,108.034 243.035,108.034C243.184,108.034 243.305,107.419 243.305,106.667C243.305,103.783 241.395,104.296 239.273,107.751C238.473,109.053 235.608,109.176 234.19,107.97C233.51,107.393 232.841,107.116 232.124,107.116L231.064,107.116L231.064,105.596C231.064,104.393 231.19,104.009 231.672,103.751C232.438,103.341 233.512,101.023 233.512,99.779C233.512,99.26 233.925,98.016 234.43,97.016C234.935,96.016 235.348,94.978 235.348,94.71C235.348,93.604 236.724,90.974 237.857,89.914C239.336,88.53 240.245,86.281 240.245,84.006C240.245,82.111 239.999,81.767 237.68,80.412C236.243,79.572 236.236,79.562 236.306,78.043C236.344,77.204 236.316,76.472 236.244,76.415C235.329,75.693 233.467,74.851 231.917,74.459C228.808,73.673 228.615,73.461 228.615,70.844L228.615,68.615L230.396,67.072C232,65.682 232.341,65.52 233.839,65.435C235.31,65.351 235.513,65.259 235.601,64.633C235.686,64.038 236.901,62.993 237.902,62.654C238.432,62.475 238.665,59.979 238.196,59.509C237.703,59.017 233.974,58.873 233.688,59.335M46.221,73.919C47.501,75.281 46.918,78.168 45.14,79.266C43.544,80.253 42.34,79.346 43.442,77.986C43.995,77.302 43.992,77.271 43.273,76.417C41.608,74.438 44.448,72.031 46.221,73.919M358.187,78.397C359.428,80.809 359.505,81.28 358.817,82.261C358.376,82.891 358.387,83.005 358.953,83.726C359.991,85.045 359.047,86.054 357.516,85.263C355.332,84.133 353.995,80.938 355.203,79.73C355.562,79.37 355.655,78.898 355.537,78.019C355.158,75.194 356.649,75.407 358.187,78.397M66.396,77.421C67.192,77.847 67.378,78.561 66.836,79.104C66.238,79.702 65.663,79.697 65.056,79.091C64.053,78.088 65.131,76.744 66.396,77.421M52.43,79.923C53.717,80.601 53.921,81.657 52.953,82.625C52.15,83.428 51.596,83.161 51.02,81.694C50.361,80.018 51.025,79.184 52.43,79.923M298.24,82.929C297.904,83.071 296.901,83.867 296.011,84.697L294.395,86.207L294.555,88.412C294.644,89.624 294.797,90.941 294.897,91.338C295.185,92.485 292.489,94.862 290.393,95.308C288.816,95.645 289.262,97.322 290.93,97.322C291.915,97.322 295.034,95.692 295.974,94.685C297.696,92.842 300.206,92.837 298.863,94.68C298.601,95.039 298.267,95.608 298.12,95.945C297.973,96.282 297.238,97.473 296.487,98.593C295.33,100.317 295.092,100.934 294.935,102.617C294.825,103.794 294.494,105.023 294.124,105.631C293.237,107.086 293.736,110.482 294.837,110.482C295.77,110.482 299.905,111.583 300.306,111.939C300.95,112.509 300.987,114.015 300.383,115.073C300.142,115.493 299.94,116.292 299.934,116.848C299.928,117.403 299.71,118.271 299.449,118.776C298.934,119.771 299.075,120.731 299.774,120.999C300.438,121.254 301.993,119.777 302.234,118.66C302.631,116.828 303.478,115.991 304.936,115.991C306.523,115.991 307.201,115.514 307.326,114.308L307.422,113.389L311.919,113.389C315.108,113.389 316.528,113.278 316.8,113.007C317.012,112.796 317.56,112.624 318.019,112.624C320.552,112.624 319.469,108.13 316.726,107.259C315.618,106.907 315.71,105.438 316.861,105.12C320.907,104.003 321.537,101.809 318.222,100.386C315.358,99.157 313.308,97.585 313.594,96.838C313.907,96.022 314.759,96.1 316.426,97.096C321.058,99.864 322.424,100.084 323.148,98.179C323.917,96.156 322.664,93.638 320.189,92.231C318.001,90.987 316.144,89.091 316.144,88.102C316.144,86.811 315.197,85.429 314.05,85.048C311.569,84.223 307.269,85.256 307.269,86.676C307.269,86.822 306.966,87.35 306.597,87.85L305.926,88.758L304.914,87.777C304.125,87.012 303.902,86.545 303.902,85.654C303.902,84.249 303.253,83.55 301.949,83.55C301.404,83.55 300.691,83.348 300.365,83.101C299.697,82.596 299.137,82.551 298.24,82.929M359.226,87.244C360.358,87.639 360.66,88.263 360.026,88.897C359.468,89.455 358.974,89.484 357.95,89.017C355.996,88.127 357.152,86.521 359.226,87.244M348.279,96.251C348.279,96.672 348.141,97.016 347.972,97.016C347.631,97.016 347.553,96.007 347.87,95.69C348.208,95.353 348.279,95.45 348.279,96.251M360.642,96.139C362.039,96.776 361.983,97.94 360.526,98.544C359.63,98.915 358.522,98.594 358,97.812C357.188,96.595 359.052,95.415 360.642,96.139M308.783,97.314C310.802,98.394 309.44,99.464 306.044,99.464C301.582,99.464 300.844,97.664 305.126,97.224C307.302,97 308.241,97.023 308.783,97.314M307.751,104.624C307.846,105.069 308.046,105.737 308.197,106.11C308.567,107.03 307.786,107.862 306.965,107.423C305.667,106.728 305.103,105.6 305.587,104.664C306.325,103.236 307.452,103.216 307.751,104.624" style="fill:rgb(39,74,68);"/>
    </g>
</svg>
