<?xml version="1.0" encoding="UTF-8" standalone="no"?>
<!DOCTYPE svg PUBLIC "-//W3C//DTD SVG 1.1//EN" "http://www.w3.org/Graphics/SVG/1.1/DTD/svg11.dtd">
<svg width="100%" height="100%" viewBox="0 0 1920 991" version="1.1" xmlns="http://www.w3.org/2000/svg" xmlns:xlink="http://www.w3.org/1999/xlink" xml:space="preserve" xmlns:serif="http://www.serif.com/" style="fill-rule:evenodd;clip-rule:evenodd;stroke-linejoin:round;stroke-miterlimit:2;">
    <g transform="matrix(1,0,0,1,0,-209.399)">
        <g>
            <g id="path0" transform="matrix(2.16011,0,0,2.16011,1055.95,209.322)">
                <path d="M394.162,2.448C391.302,5.659 390.676,7.225 390.676,11.174L390.676,14.452L389.014,14.452C386.212,14.452 384.396,16.094 385.597,17.542C386.461,18.583 385.332,19.438 382.769,19.684C379.739,19.975 378.089,21.071 378.089,22.792C378.089,24.63 381.735,27.506 384.065,27.506C385.577,27.506 385.642,27.564 384.976,28.322C383.253,30.284 383.658,33.1 385.663,33.1C386.541,33.1 386.381,33.402 384.481,35.331C382.544,37.297 382.284,37.8 382.284,39.581C382.284,41.461 382.212,41.578 381.235,41.275C380.659,41.097 379.662,40.835 379.021,40.694C378.38,40.553 377.541,40.185 377.156,39.876C374.093,37.418 369.354,36.53 368.187,38.196C367.499,39.178 366.63,39.433 362.587,39.835C360.416,40.051 359.907,39.971 359.907,39.414C359.907,38.21 358.166,37.68 355.335,38.023C351.399,38.501 347.786,42.391 347.786,46.15L347.786,47.484L343.939,47.691C338.286,47.996 334.689,49.069 332.296,51.167C331.431,51.925 329.319,51.407 327.702,50.04C327.273,49.677 325.84,49.417 324.268,49.417C322.784,49.417 320.577,49.065 319.364,48.634C316.563,47.639 312.123,48.569 308.817,50.844C306.142,52.684 305.895,53.361 307.12,55.49C308.017,57.048 308.043,57.3 307.408,58.207C306.595,59.367 305.828,59.515 305.828,58.512C305.828,58.13 305.091,56.852 304.19,55.672L302.553,53.528L303.957,51.755C305.85,49.365 305.802,47.696 303.783,45.74C302.127,44.134 300.097,43.862 299.917,45.221C299.866,45.606 299.696,47.088 299.54,48.514C299.034,53.128 298.192,53.613 290.693,53.613C282.314,53.613 280.045,55.075 282.745,58.734C284.039,60.488 283.992,60.929 282.591,60.179C279.742,58.654 278.396,63.708 279.971,70.016C280.258,71.167 280.148,71.294 278.598,71.584C277.671,71.758 276.798,72.087 276.657,72.314C276.517,72.541 275.887,72.727 275.258,72.727C274.628,72.727 273.749,72.922 273.304,73.159C272.858,73.397 272.127,73.705 271.678,73.844C270.488,74.213 270.681,75.765 272.028,76.647C272.669,77.067 273.193,77.708 273.193,78.072C273.193,79.528 272.071,79.262 270.116,77.343C268.154,75.418 267.989,75.349 266.601,75.873C265.63,76.239 264.863,76.273 264.304,75.974C260.143,73.747 248.127,85.089 250.38,89.116C250.97,90.17 250.168,91.091 249.127,90.554C248.646,90.306 246.678,89.977 244.755,89.824C242.832,89.671 240.486,89.408 239.542,89.239C237.688,88.908 236.739,90.751 237.511,93.184C237.754,93.948 237.566,94.204 236.581,94.451C235.478,94.728 232.964,96.551 229.953,99.257C226.981,101.929 230.673,105.828 236.175,105.828C238.172,105.828 238.201,105.85 237.932,107.195C237.715,108.279 237.923,108.828 238.938,109.843C239.643,110.547 240.361,111.663 240.536,112.322C240.71,112.981 241.416,113.793 242.105,114.128C243.435,114.774 243.561,115.041 242.974,115.965C242.681,116.426 242.07,116.407 240.03,115.875C238.613,115.506 236.324,115.055 234.943,114.871C233.265,114.649 232.176,114.222 231.66,113.586C230.66,112.351 229.094,113.262 226.924,116.34L225.474,118.397L222.795,115.842C221.036,114.165 219.722,113.287 218.969,113.287C218.242,113.287 217.525,112.833 217.009,112.045C216.562,111.362 215.391,109.931 214.409,108.865L212.622,106.926L213.559,105.032C215.042,102.034 211.806,96.61 207.242,94.444C205.687,93.706 205.594,93.534 205.594,91.381C205.594,90.126 205.385,88.97 205.128,88.811C204.872,88.653 204.662,88.08 204.662,87.538C204.662,86.997 204.313,86.169 203.888,85.698C203.462,85.227 202.885,84.387 202.605,83.832C201.623,81.877 196.964,79.983 196.448,81.329C196.256,81.829 195.621,81.46 194.015,79.914C191.218,77.223 190.062,76.919 188.431,78.443C187.743,79.087 186.513,79.95 185.697,80.361C184.882,80.772 184.107,81.478 183.976,81.93C183.264,84.37 183.235,87.299 183.891,90.676C184.854,95.634 184.851,95.66 183.333,95.486C182.185,95.353 182.067,95.177 182.202,93.787C182.429,91.467 180.717,88.188 178.878,87.42C178.049,87.074 176.975,86.353 176.492,85.819C176.008,85.285 175.259,84.848 174.825,84.848C173.175,84.848 172.23,83.126 173.227,81.935C174.862,79.979 175.453,79.72 178.294,79.719C180.206,79.717 181.571,79.442 182.517,78.865C183.287,78.397 184.479,77.872 185.167,77.7C186.581,77.346 186.867,76.714 187.153,73.308C187.264,71.989 187.578,70.493 187.85,69.984C188.696,68.402 188.41,67.655 186.463,66.367L184.581,65.121L186.203,63.784C188.333,62.029 190.124,58.519 189.445,57.431C187.649,54.555 178.187,54.885 172.802,58.013C171.457,58.794 170.454,59.058 169.531,58.876C167.935,58.561 167.386,59.236 167.366,61.538C167.347,63.712 166.785,64.622 166.026,63.708C165.72,63.338 165.501,62.856 165.54,62.636C166.763,55.821 156.656,53.758 150.658,59.6C148.872,61.34 147.827,62.005 146.879,62.005C145.257,62.005 142.084,63.284 141.595,64.136C141.345,64.571 140.908,64.649 140.196,64.386C137.659,63.448 135.9,66.575 135.899,72.028C135.897,77.286 134.626,77.464 134.239,72.261C133.793,66.281 132.187,64.611 129.568,67.408L128.438,68.615L128.115,66.359C127.384,61.263 127.263,60.974 125.995,61.292C125.356,61.452 124.176,61.705 123.372,61.853C122.523,62.009 120.936,63.043 119.58,64.323C118.298,65.533 116.604,66.964 115.815,67.502L114.38,68.481L112.89,66.542C112.07,65.476 111.162,63.809 110.871,62.838C110.228,60.691 108.979,60.489 108.187,62.403C107.577,63.874 102.575,65.534 102.194,64.391C101.673,62.828 99.767,64.223 99.767,66.166C99.767,68.946 98.146,68.639 95.035,65.272C92.512,62.54 91.774,62.005 90.531,62.005C87.717,62.005 88.603,64.7 92.984,69.464L95.342,72.028L95.184,75.175C94.995,78.929 93.988,79.359 91.173,76.887C89.192,75.148 87.749,75.357 87.332,77.443C87.18,78.201 86.612,79.047 86.069,79.324C81.177,81.816 76.138,91.369 78.835,93.036C79.118,93.211 79.663,94.105 80.046,95.022C80.43,95.939 81.457,97.561 82.33,98.626C83.202,99.691 83.916,100.987 83.916,101.506C83.916,102.025 84.231,102.711 84.615,103.03C85,103.35 85.315,104.145 85.315,104.799C85.315,105.452 85.662,106.371 86.086,106.84C86.822,107.653 86.765,107.692 84.834,107.692C83.434,107.692 82.496,107.988 81.79,108.651L80.769,109.611L79.196,108.155C76.451,105.615 72.398,107.24 70.012,111.838C68.987,113.814 68.065,114.24 68.065,112.738C68.065,111.683 66.104,109.091 65.306,109.091C64.302,109.091 63.756,110.589 64.031,112.594C64.352,114.931 64.146,115.108 62.695,113.744C61.928,113.024 60.784,112.733 57.817,112.504C54.036,112.213 53.888,112.155 51.828,110.182C50.667,109.069 49.265,108.159 48.712,108.159C48.16,108.159 47.564,108.015 47.388,107.839C45.579,106.03 36.948,106.02 35.143,107.825C34.96,108.008 34.337,108.159 33.76,108.159C32.347,108.159 31.235,108.619 31.235,109.204C31.235,111.753 27.678,111.984 23.336,109.718C17.988,106.928 8.629,111.084 11.963,114.768C12.389,115.239 12.968,116.086 13.249,116.65C13.736,117.627 15.693,119.205 18.984,121.276C20.442,122.193 20.463,122.253 19.73,123.372C19.203,124.177 18.828,124.376 18.485,124.033C18.216,123.764 16.476,123.543 14.618,123.543L11.241,123.543L9.233,125.874C8.129,127.156 6.834,128.205 6.355,128.205C4.169,128.205 1.863,131.604 1.885,134.794C1.909,138.133 2.706,141.657 3.714,142.871C6.164,145.823 4.633,155.713 1.493,157.218L0.233,157.821L0.115,212.943L-0.004,458.623L400,458.623L400,134.804C400,6.295 399.97,1.516 399.147,0.772C397.684,-0.553 396.473,-0.146 394.162,2.448M305.045,70.203C307.674,72.132 307.543,73.863 304.871,72.482C304.141,72.104 303.25,71.795 302.893,71.795C301.681,71.795 300.492,70.043 301.158,69.24C302.001,68.224 302.524,68.354 305.045,70.203M160.342,81.993C160.959,83.146 159.474,84.696 158.595,83.816C157.89,83.112 157.892,82.387 158.601,81.678C159.378,80.901 159.798,80.977 160.342,81.993M143.097,82.957C144.053,83.563 142.976,85.911 141.842,85.692C140.842,85.5 140.526,84.1 141.277,83.194C141.929,82.409 142.179,82.377 143.097,82.957M339.704,83.714C340.089,84.718 339.379,85.309 336.627,86.278C333.59,87.348 333.066,86.634 335.351,84.54C337.169,82.873 339.231,82.482 339.704,83.714M140.587,89.089C141.08,89.886 139.525,91.227 138.869,90.571C138.577,90.279 138.464,89.711 138.618,89.309C138.941,88.468 140.122,88.336 140.587,89.089M376.923,92.367C376.923,92.704 376.452,93.214 375.877,93.501C375.302,93.788 374.426,94.389 373.931,94.837C371.602,96.945 369.747,94.428 371.951,92.154C373.547,90.507 376.923,90.652 376.923,92.367M144.895,92.867C145.807,93.779 145.535,95.088 144.319,95.642C142.085,96.66 140.85,94.979 142.496,93.16C143.393,92.17 144.11,92.082 144.895,92.867M266.558,97.256C266.252,97.926 265.922,98.234 265.824,97.94C265.577,97.196 266.075,96.037 266.642,96.037C266.938,96.037 266.906,96.491 266.558,97.256M199.256,102.241C200.647,103.258 200.073,105.15 198.41,105.03C196.54,104.895 196.12,104.336 196.789,102.868C197.416,101.491 198.021,101.338 199.256,102.241M263.563,103.416C264.285,104.213 264.266,104.332 263.269,105.269C260.927,107.469 258.67,106.263 260.345,103.707C261.233,102.351 262.497,102.237 263.563,103.416M186.701,106.333C186.482,107.023 186.644,107.226 187.415,107.226C188.921,107.226 188.417,108.822 186.854,109.003C184.3,109.299 182.674,106.253 184.965,105.463C186.553,104.915 187.069,105.174 186.701,106.333M291.063,106.021C291.759,107.836 289.533,111.083 288.608,109.6C288.383,109.239 288.372,108.505 288.584,107.968C288.795,107.432 289.084,106.626 289.225,106.177C289.533,105.197 290.708,105.098 291.063,106.021M250.35,112.251C250.35,112.706 250.701,113.58 251.13,114.193C252.016,115.459 251.523,115.252 249.097,113.34C247.452,112.043 247.489,111.422 249.212,111.422C249.991,111.422 250.35,111.683 250.35,112.251M303.054,124.622C305.001,127.816 303.54,129.617 301.034,127.111C299.058,125.134 298.486,123.319 299.636,122.675C300.715,122.071 301.915,122.754 303.054,124.622M93.706,129.61C93.706,130.126 93.956,130.948 94.261,131.437C95.069,132.731 93.959,133.962 92.342,133.563C90.416,133.088 90.216,132.59 91.135,130.552C92.058,128.505 93.706,127.901 93.706,129.61M21.808,130.329C23.918,131.808 22.299,138.462 19.829,138.462C19.487,138.462 19.516,134.398 19.877,131.767C20.205,129.37 20.318,129.286 21.808,130.329M211.497,134.741C212.863,136.519 212.907,136.704 212.345,138.338C211.187,141.706 209.053,140.184 208.759,135.781C208.521,132.197 209.311,131.897 211.497,134.741M218.922,135.428C219.891,136.907 219.48,137.995 217.953,137.995C217.145,137.995 216.597,137.631 216.246,136.86C215.138,134.428 217.455,133.189 218.922,135.428M20.513,145.016C20.513,146.159 20.328,146.794 20.047,146.62C19.257,146.132 19.525,143.124 20.357,143.124C20.443,143.124 20.513,143.975 20.513,145.016M310.396,160.932C312.401,162.937 309.434,165.24 306.991,163.577C305.07,162.268 304.804,161.09 306.503,161.415C307.201,161.548 307.74,161.388 307.887,161.003C308.187,160.222 309.645,160.181 310.396,160.932M324.816,163.897C325.992,164.667 325.849,165.501 324.541,165.501C324.095,165.501 323.475,165.756 323.164,166.067C322.72,166.511 322.334,166.368 321.373,165.408C318.932,162.967 321.606,161.793 324.816,163.897M311.422,172.028C311.422,172.511 311.635,173.037 311.896,173.198C312.402,173.511 312.082,174.359 311.457,174.359C310.613,174.359 308.684,172.417 308.919,171.804C309.448,170.426 311.422,170.602 311.422,172.028M324.547,177.38C325.182,179.753 323.664,180.35 322.298,178.265C321.534,177.099 321.538,177.013 322.385,176.394C323.567,175.529 324.119,175.781 324.547,177.38M308.998,178.182C309.789,178.973 309.692,180.734 308.84,181.061C308.14,181.33 307.815,180.898 307.659,179.487C307.451,177.606 307.943,177.127 308.998,178.182M306.442,192.518C307.242,193.286 306.581,196.496 305.593,196.637C304.541,196.788 300.699,194.163 300.699,193.293C300.699,191.711 304.998,191.13 306.442,192.518M290.591,206.643C290.249,208.402 289.559,209.013 288.71,208.308C287.856,207.599 287.971,206.189 288.928,205.632C290.447,204.747 290.906,205.026 290.591,206.643M308.012,217.541C308.325,218.356 307.177,220.607 306.3,220.899C306.006,220.997 305.651,220.638 305.511,220.101C305.37,219.564 305.093,219.225 304.895,219.347C304.697,219.47 304.287,219.272 303.984,218.907C303.54,218.372 303.688,218.107 304.747,217.532C306.468,216.599 307.652,216.603 308.012,217.541" style="fill:url(#_Linear1);"/>
            </g>
            <g id="path01" serif:id="path0" transform="matrix(1.50956,0,0,1.50956,0,223.09)">
                <path d="M82.941,1.207C82.295,1.92 81.848,3.53 81.848,5.141C81.848,6.64 81.514,10.116 81.105,12.865C80.435,17.367 80.478,17.993 81.537,19.163C82.67,20.414 82.664,20.462 81.385,20.462C79.627,20.462 73.927,24.853 73.927,26.207C73.927,27.751 79.076,34.185 81.106,35.178C82.989,36.099 83.22,38.57 81.891,43.564C81.553,44.835 81.034,47.657 80.737,49.835L80.198,53.795L77.558,53.975C75.222,54.134 74.393,53.734 70.374,50.51C65.413,46.529 65.202,46.438 64.088,47.781C63.504,48.485 63.638,49.484 64.667,52.096C65.404,53.965 66.007,55.588 66.007,55.702C66.007,55.816 63.49,56.087 60.415,56.304C52.804,56.841 47.665,60.075 48.586,63.746C48.867,64.863 48.573,65.438 47.418,66.033C40.669,69.51 39.619,75.006 44.86,79.416C47.074,81.279 47.374,82.584 45.875,83.828C45.204,84.385 44.884,85.877 44.884,88.449C44.884,91.02 44.565,92.513 43.894,93.069C43.35,93.521 42.904,94.138 42.904,94.441C42.904,94.743 42.162,96.085 41.254,97.423C39.948,99.347 39.604,100.679 39.604,103.807L39.604,107.759L36.469,104.911C34.744,103.345 33.094,101.59 32.801,101.01C32.115,99.65 23.11,97.569 16.337,97.205C11.335,96.935 11.23,96.894 11.614,95.362C12.607,91.409 6.513,89.079 2.145,91.742L0,93.05L0,647.15L400.011,647.15L399.841,350.33C399.678,244.641 399.612,239.162 398.475,236.964C396.066,232.305 395.335,231.323 389.604,225.047C387.419,222.655 386.799,221.462 386.799,219.658C386.799,218.31 386.224,216.61 385.427,215.596C384.433,214.332 384.17,213.332 384.472,211.958C385.206,208.615 381.153,206.657 377.52,208.601C376.208,209.303 372.277,207.861 372.277,206.677C372.277,206.374 371.048,204.73 369.545,203.022L366.812,199.918L367.695,197.154C368.181,195.633 368.999,193.721 369.514,192.904C370.332,191.605 370.314,191.213 369.368,189.77C368.315,188.162 368.355,188.048 370.943,185.241C372.403,183.657 373.597,181.932 373.597,181.409C373.597,180.009 369.458,176.238 367.922,176.238C367.195,176.238 366.23,175.866 365.776,175.413C365.205,174.841 362.428,174.587 356.735,174.587L348.518,174.587L348.516,172.531C348.515,171.4 349.109,169.72 349.835,168.797C352.045,165.987 349.332,160.396 345.759,160.396C345.185,160.396 344.28,159.741 343.749,158.94L342.782,157.484L338.553,158.725C336.227,159.407 333.521,160.359 332.541,160.841C328.435,162.857 323.475,161.757 326.073,159.406C328.405,157.295 326.874,153.722 324.401,155.506C323.943,155.836 322.704,156.753 321.649,157.544C319.225,159.36 317.303,158.633 318.675,156.419C320.896,152.837 318.23,145.215 314.755,145.215C312.588,145.215 309.737,141.556 309.823,138.883C309.91,136.151 306.071,133.333 302.26,133.333C297.668,133.333 297.155,131.613 301.179,129.703C303.482,128.61 304.323,127.645 306.071,124.092C308.616,118.919 308.597,119.079 306.831,117.65C306.051,117.019 304.879,115.998 304.226,115.382C300.801,112.147 287.444,110.312 285.014,112.742C284.58,113.176 283.753,113.531 283.176,113.531C282.599,113.531 280.962,114.125 279.538,114.851C278.114,115.578 276.671,116.172 276.331,116.172C275.991,116.172 274.393,117.254 272.779,118.576L269.845,120.981L267.2,118.335C265.211,116.347 264.312,114.726 263.575,111.806C263.036,109.669 262.249,106.553 261.826,104.882C261.402,103.211 260.649,101.356 260.152,100.759C259.363,99.813 259.552,99.338 261.637,97.03C264.475,93.889 264.391,94.48 262.388,91.766C260.52,89.233 261.056,87.789 263.864,87.789C266.205,87.789 269.485,85.585 271.525,82.641C273.813,79.34 273.734,78.601 270.792,75.79C267.138,72.296 265.94,71.887 258.185,71.478L251.117,71.105L248.111,68.384C245.298,65.837 245.077,65.391 244.663,61.429C244.403,58.938 243.766,56.693 243.116,55.975C241.544,54.237 242.656,53.429 247.387,52.871C250.512,52.502 251.852,51.959 253.749,50.294C255.07,49.134 256.445,48.185 256.803,48.185C258.531,48.185 258.992,44.882 257.539,42.916C256.75,41.85 256.106,40.566 256.106,40.064C256.106,38.68 250.086,33.896 247.679,33.367C246.514,33.111 245.39,32.628 245.183,32.292C244.976,31.957 243.02,31.683 240.837,31.683C235.96,31.683 235.592,30.039 240.096,28.375C243.847,26.99 244.138,26.607 244.952,21.988C246.769,11.673 239.43,8.55 233.912,17.29C230.214,23.149 220.345,24.71 222.107,19.157C222.748,17.138 220.84,14.521 218.727,14.521C217.789,14.521 215.939,13.673 214.616,12.637C209.094,8.31 204.62,8.033 204.62,12.019C204.62,13.48 203.001,12.718 199.29,9.511C192.341,3.507 184.034,8.909 186.005,18.15C186.823,21.988 185.458,22.126 178.969,18.858C174.691,16.703 174.487,16.495 174.77,14.567C175.208,11.585 172.828,11.866 169.182,15.226C166.736,17.481 165.964,17.845 164.371,17.495C162.809,17.152 162.012,17.494 159.869,19.43C156.307,22.648 155.116,22.335 155.116,18.179C155.116,15.918 153.859,15.258 148.631,14.772C143.795,14.323 142.843,13.575 144.916,11.855C146.31,10.698 145.864,8.442 144.064,7.549C143.25,7.144 142.013,6.297 141.315,5.666C139.847,4.337 128.755,3.852 123.267,4.875C120.181,5.451 120.132,5.433 120.132,3.743C120.132,0.162 114.883,-0.222 111.41,3.106C110.123,4.339 109.571,5.523 109.571,7.054C109.571,9.788 109.768,9.819 104.585,6.271C102.199,4.637 99.949,3.3 99.584,3.3C99.22,3.3 97.948,2.558 96.758,1.65C93.91,-0.522 84.771,-0.815 82.941,1.207M121.452,41.254C122.786,42.861 121.032,44.647 119.49,43.251C118.879,42.697 117.825,42.244 117.149,42.244C115.973,42.244 115.975,42.202 117.201,41.275C118.859,40.021 120.422,40.013 121.452,41.254M102.031,43.637C103.378,44.313 110.775,43.643 113.861,42.565C114.587,42.311 114.249,42.705 113.108,43.441C111.968,44.176 110.844,45.087 110.61,45.466C110.334,45.912 109.628,45.942 108.604,45.553C107.668,45.197 104.115,45.187 99.882,45.527C92.592,46.113 90.432,45.604 90.428,43.297C90.426,42.378 100.087,42.661 102.031,43.637M237.756,60.335C237.402,63.367 234.049,66.725 232.837,65.26C232.384,64.712 231.165,63.737 230.127,63.094C227.682,61.576 228.449,60.799 233.83,59.34C236.098,58.725 237.968,58.191 237.986,58.154C238.004,58.116 237.901,59.098 237.756,60.335M44.224,110.192C44.224,111.336 43.063,111.547 42.238,110.554C41.559,109.736 41.658,109.571 42.823,109.571C43.594,109.571 44.224,109.85 44.224,110.192M71.011,115.436L72.594,116.681L71.15,117.059C69.552,117.477 67.987,116.507 67.987,115.101C67.987,113.837 69.142,113.966 71.011,115.436M172.937,138.543C172.937,138.867 172.492,139.304 171.947,139.513C170.941,139.899 170.595,139.196 171.397,138.394C172.028,137.763 172.937,137.851 172.937,138.543" style="fill:url(#_Linear2);"/>
            </g>
        </g>
    </g>
    <defs>
        <linearGradient id="_Linear1" x1="0" y1="0" x2="1" y2="0" gradientUnits="userSpaceOnUse" gradientTransform="matrix(-1.98221,-370.674,370.674,-1.98221,-32.6028,315.305)"><stop offset="0" style="stop-color:rgb(39,51,41);stop-opacity:1"/><stop offset="1" style="stop-color:rgb(92,100,65);stop-opacity:1"/></linearGradient>
        <linearGradient id="_Linear2" x1="0" y1="0" x2="1" y2="0" gradientUnits="userSpaceOnUse" gradientTransform="matrix(-2.83646,-530.418,530.418,-2.83646,652.859,442.067)"><stop offset="0" style="stop-color:rgb(39,51,41);stop-opacity:1"/><stop offset="1" style="stop-color:rgb(92,100,65);stop-opacity:1"/></linearGradient>
    </defs>
</svg>
