<?xml version="1.0" encoding="UTF-8" standalone="no"?>
<!DOCTYPE svg PUBLIC "-//W3C//DTD SVG 1.1//EN" "http://www.w3.org/Graphics/SVG/1.1/DTD/svg11.dtd">
<svg width="100%" height="100%" viewBox="0 0 1670 547" version="1.1" xmlns="http://www.w3.org/2000/svg" xmlns:xlink="http://www.w3.org/1999/xlink" xml:space="preserve" xmlns:serif="http://www.serif.com/" style="fill-rule:evenodd;clip-rule:evenodd;stroke-linejoin:round;stroke-miterlimit:2;">
    <g transform="matrix(1,0,0,1,-126.782,-493.928)">
        <path d="M1796.46,493.928L1796.46,1040L126.782,1040L126.782,605.766C164.478,629.15 194.094,606.112 217.261,574.193C226.516,561.441 229.892,548.675 245.701,542.492C280.663,528.817 314.731,566.506 347.661,573.283C363.987,576.644 383.529,565.509 398.715,572.487C408.945,577.187 444.378,611.58 451.868,620.902C457.267,627.622 459.439,636.303 465.738,642.312C476.585,652.66 493.755,652.21 504.144,663.642C525.08,686.679 511.026,709.112 551.216,707.677C599.043,705.97 595.455,635.729 625.65,613.104C652.995,592.613 690.929,626.32 719.474,621.662C748.76,616.882 762.82,582.18 794.1,579.588C829.567,576.648 857.031,608.497 891.787,606.706C916.566,605.43 921.237,563.588 945.455,561.812C969.565,560.044 992.135,571.691 1016.39,569.774C1026.28,568.992 1034.5,563.994 1043.84,561.014C1064.22,554.509 1087.94,550.465 1109.34,553.401C1151.94,559.245 1189.57,584.601 1233.6,582.449C1292.88,579.552 1296.97,550.345 1345.49,538.027C1381.4,528.908 1420.55,539.43 1457.22,537.549C1483.2,536.216 1503.78,522.573 1528.92,518.868C1587.42,510.248 1641.07,542.282 1698.65,540.067C1741.03,538.437 1764.36,517.974 1796.46,493.928Z" style="fill:url(#_Linear1);"/>
    </g>
    <defs>
        <linearGradient id="_Linear1" x1="0" y1="0" x2="1" y2="0" gradientUnits="userSpaceOnUse" gradientTransform="matrix(-6.3534,-401.853,401.853,-6.3534,831.317,1026.31)"><stop offset="0" style="stop-color:rgb(38,43,62);stop-opacity:1"/><stop offset="1" style="stop-color:rgb(65,56,80);stop-opacity:1"/></linearGradient>
    </defs>
</svg>
