<?xml version="1.0" encoding="UTF-8" standalone="no"?>
<!DOCTYPE svg PUBLIC "-//W3C//DTD SVG 1.1//EN" "http://www.w3.org/Graphics/SVG/1.1/DTD/svg11.dtd">
<svg width="100%" height="100%" viewBox="0 0 1671 603" version="1.1" xmlns="http://www.w3.org/2000/svg" xmlns:xlink="http://www.w3.org/1999/xlink" xml:space="preserve" xmlns:serif="http://www.serif.com/" style="fill-rule:evenodd;clip-rule:evenodd;stroke-linejoin:round;stroke-miterlimit:2;">
    <g transform="matrix(1,0,0,1,-125.929,-437.316)">
        <path d="M1796.46,464.012L1796.46,1040L125.929,1040L125.929,509.371C141.682,503.793 154.327,491.85 169.939,487.227C181.977,483.663 198.607,480.581 211.093,480.481C220.506,480.405 230.468,483.733 239.76,481.872C253.176,479.184 263.294,467.808 277.035,464.847C292.953,461.418 307.494,469.411 323.073,467.715C338.307,466.057 352.628,459.449 367.86,457.582C376.443,456.531 384.673,459.137 393.291,457.698C401.572,456.315 409.807,452.715 418.212,452.445C429.336,452.088 438.313,464.2 449.98,464.592C467.484,465.18 473.131,445.817 487.63,439.944C505.639,432.648 527.893,442.35 545.444,447.236C570.559,454.227 574.309,488.402 590.326,505.672C600.111,516.223 612.727,507.118 624.851,511.157C650.723,519.776 663.138,547.591 692.737,548.562C718.369,549.404 739.934,533.804 765.098,533.468C792.752,533.098 824.411,551.867 851.107,540.478C880.278,528.033 892.067,482.052 924.399,477.784C957.31,473.439 989.095,493.122 1021.77,491.186C1048.31,489.613 1070.59,473.323 1096.79,472.319C1127.22,471.154 1156.13,486.743 1187.09,483.723C1203.81,482.092 1237.16,467.172 1249.31,468.227C1276.38,470.577 1298.29,495.474 1326.78,495.707C1356.19,495.947 1376.21,464.925 1405.69,462.649C1417.91,461.706 1429.9,467.991 1442.38,467.579C1456.94,467.098 1469.94,458.901 1484.61,460.857C1493.9,462.096 1502.07,467.139 1511.17,468.812C1520.22,470.477 1530.15,468.405 1538.96,470.723C1552.35,474.246 1564.12,480.683 1578.4,481.317C1591.48,481.899 1603.58,476.238 1616.54,475.543C1631.48,474.742 1647,479.199 1661.75,476.056C1674.32,473.379 1685.09,464.92 1697.95,463.917C1734.83,461.041 1759.74,480.98 1796.46,464.012Z" style="fill:url(#_Linear1);"/>
    </g>
    <defs>
        <linearGradient id="_Linear1" x1="0" y1="0" x2="1" y2="0" gradientUnits="userSpaceOnUse" gradientTransform="matrix(-5.69265,-263.026,263.026,-5.69265,537.561,756.954)"><stop offset="0" style="stop-color:rgb(51,49,70);stop-opacity:1"/><stop offset="1" style="stop-color:rgb(77,63,89);stop-opacity:1"/></linearGradient>
    </defs>
</svg>
