<?xml version="1.0" encoding="UTF-8" standalone="no"?>
<!DOCTYPE svg PUBLIC "-//W3C//DTD SVG 1.1//EN" "http://www.w3.org/Graphics/SVG/1.1/DTD/svg11.dtd">
<svg width="100%" height="100%" viewBox="0 0 1668 322" version="1.1" xmlns="http://www.w3.org/2000/svg" xmlns:xlink="http://www.w3.org/1999/xlink" xml:space="preserve" xmlns:serif="http://www.serif.com/" style="fill-rule:evenodd;clip-rule:evenodd;stroke-linejoin:round;stroke-miterlimit:2;">
    <g transform="matrix(1,0,0,1,-125.039,-718.105)">
        <path d="M125.039,812.172L235.325,812.172L235.325,774.332L259.575,774.332L259.575,809.241L312.072,809.241L312.072,798.049L327.261,798.049L327.261,809.508L393.082,809.508L412.002,814.304L412.002,765.538L432.254,765.538L432.254,718.105L486.919,718.105L486.919,781.26L499.71,781.26L499.71,790.587L523.96,790.587L523.96,803.378L591.912,803.378L591.912,822.831L613.497,822.831L613.497,836.955L632.95,836.955L632.95,809.774L664.661,809.774L664.661,821.233L679.584,821.233L679.584,837.754L734.026,837.754L734.026,843.763L759.425,843.763L759.425,853.34L782.325,853.34L782.325,864.582L802.311,864.582L802.311,801.293L879.757,801.293L879.757,850.425L891.416,850.425L891.416,845.012L901.825,845.012L901.825,805.873L923.477,805.873L923.477,810.453L964.698,810.453L964.698,822.944L988.431,822.944L988.431,853.756L992.595,853.756L992.595,812.951L1010.5,812.951L1010.5,823.777L1018.41,823.777L1018.41,847.51L1035.07,847.51L1035.07,835.436L1058.8,835.436L1064.45,832.102L1090.2,832.102L1090.2,851.654L1096.68,851.654L1096.68,867.173L1101.46,867.173L1101.46,838.862L1114.59,838.862L1114.59,868.538L1118,868.538L1118,825.56L1163.37,825.56L1163.37,840.568L1166.44,840.568L1166.44,848.754L1169.68,848.754L1169.68,839.886L1173.94,839.886L1173.94,832.102L1185.14,820.9L1185.14,802.877L1215.72,802.877L1215.72,815.839L1224.42,815.839L1224.42,820.102L1232.27,820.102L1232.27,823.002L1236.87,823.002L1236.87,817.544L1267.7,817.544L1267.7,826.266L1282.86,826.266L1282.86,819.699L1300.67,819.699L1300.67,827.384L1407.31,827.384L1407.31,890.907L1440.09,890.907L1440.09,837.344L1448.35,837.344L1448.35,824.553L1469.67,824.553L1469.67,882.451L1478.19,882.451L1478.19,835.212L1488.85,835.212L1493.65,830.416L1573.59,830.416L1573.59,816.559L1590.38,816.559L1590.38,910.678L1620.18,910.678L1620.18,797.05L1662.39,797.05L1662.39,787.884L1681.58,787.884L1681.58,775.093L1692.45,775.093L1692.45,794.066L1709.08,794.066L1709.08,906.627L1729.97,906.627L1729.97,818.369L1792.79,818.369L1792.79,1040L125.039,1040L125.039,812.172Z" style="fill:rgb(78,92,82);"/>
    </g>
</svg>
