<?xml version="1.0" encoding="UTF-8" standalone="no"?>
<!DOCTYPE svg PUBLIC "-//W3C//DTD SVG 1.1//EN" "http://www.w3.org/Graphics/SVG/1.1/DTD/svg11.dtd">
<svg width="100%" height="100%" viewBox="0 0 1668 316" version="1.1" xmlns="http://www.w3.org/2000/svg" xmlns:xlink="http://www.w3.org/1999/xlink" xml:space="preserve" xmlns:serif="http://www.serif.com/" style="fill-rule:evenodd;clip-rule:evenodd;stroke-linejoin:round;stroke-miterlimit:2;">
    <g transform="matrix(1,0,0,1,-125.039,-724.903)">
        <path d="M128.266,883.269L136.074,883.269L136.074,730.38L230.409,730.38L230.409,893.678L236.915,893.678L236.915,910.593L277.251,910.593L277.251,916.849L285.865,916.849L285.865,906.99L315.977,906.99L315.977,916.583L328.236,916.583L328.236,895.531L351.952,895.531L351.952,881.674L385.263,881.674L385.263,897.13L422.303,897.13L422.303,907.789C422.303,907.789 464.807,907.389 464.408,907.789C464.008,908.189 464.408,883.273 464.408,883.273L507.044,878.476L507.044,902.459L521.967,902.459L521.967,820.65L533.426,813.188L533.426,799.331L587.788,799.331L587.788,933.105L615.236,933.105L615.236,949.627L643.483,949.627L643.483,906.99L666.134,890.734L719.963,899.528L719.963,927.775L743.413,927.775L743.413,957.888L757.004,957.888L757.004,948.561L763.399,948.561L763.399,926.709L779.122,926.709L793.512,941.099L820.693,941.099L820.693,957.355L838.814,957.355L838.814,972.544L866.261,972.544L866.261,907.256L871.857,907.256L871.857,900.328L909.431,900.328L909.431,906.19L917.426,906.19L917.426,966.415L969.389,984.802L969.389,963.217L992.84,963.217L992.84,925.643L1029.13,916.05L1067.08,923.725L1067.08,951.865L1080.51,951.865L1080.51,944.83L1090.53,944.83L1090.53,924.364L1094.37,924.364L1094.37,906.03L1099.7,906.03L1099.7,898.995L1108.87,898.995L1108.87,891.96L1134.66,891.96L1134.66,911.786L1139.78,911.786L1139.78,907.309L1141.7,907.309L1141.7,903.259L1153.42,903.259L1153.42,907.523L1171.33,907.523L1171.33,916.263L1177.09,916.263L1177.09,951.012L1179.86,951.012L1179.86,935.237L1189.66,935.237L1189.66,911.36L1211.19,911.36L1211.19,914.984L1218.87,914.984L1218.87,942.698L1223.56,942.698L1223.56,894.732L1232.51,894.732L1232.51,888.549L1239.76,888.549L1239.76,875.119L1245.73,875.119L1245.73,870.428L1259.16,870.428L1259.16,885.565L1272.59,885.565L1272.59,893.666L1281.97,893.666L1281.97,958.261L1294.55,958.261L1294.55,839.73L1320.35,824.807L1378.33,824.807L1378.33,785.154L1403.68,785.154L1403.68,724.903L1410.1,724.903L1410.1,754.646L1411.32,754.646L1411.32,783.571L1416.37,783.571L1416.37,725.039L1421.15,725.039L1421.15,756.147L1423.47,756.147L1423.47,786.164L1426.74,786.164L1426.74,798.852L1433.29,805.401L1433.29,1040L1473,1040L1473,896.581L1495.35,896.581L1495.35,873.216L1517.35,873.216L1517.35,895.899L1531.5,895.899L1534.04,891.726L1538.15,885.701L1542.43,882.121L1547.32,878.89L1554.39,876.969L1556.22,876.969L1556.22,888.059L1566.88,888.059L1566.88,895.277L1776.13,895.277L1776.13,907.935L1792.79,907.935L1792.79,1040L125.039,1040L125.039,883.343L128.266,883.269Z" style="fill:rgb(49,61,56);"/>
    </g>
</svg>
