<?xml version="1.0" encoding="UTF-8" standalone="no"?>
<!DOCTYPE svg PUBLIC "-//W3C//DTD SVG 1.1//EN" "http://www.w3.org/Graphics/SVG/1.1/DTD/svg11.dtd">
<svg width="100%" height="100%" viewBox="0 0 1668 558" version="1.1" xmlns="http://www.w3.org/2000/svg" xmlns:xlink="http://www.w3.org/1999/xlink" xml:space="preserve" xmlns:serif="http://www.serif.com/" style="fill-rule:evenodd;clip-rule:evenodd;stroke-linejoin:round;stroke-miterlimit:2;">
    <g transform="matrix(1,0,0,1,-125.039,-482.88)">
        <path d="M125.039,691.494L155.824,691.494L155.824,737.795L174.478,737.795L174.478,688.496L188.468,688.496L188.468,683.832L210.453,683.832L210.453,760.779L226.775,760.779L226.775,551.259L233.311,551.259L233.311,523.243L238.659,523.243L238.659,550.312C238.659,550.312 267.147,552.386 267.147,550.312L267.147,522.915L273.696,522.915L273.696,550.639L278.39,550.639L278.39,556.97L287.449,556.97L287.449,575.853L295.417,575.853L295.417,581.092L304.04,581.092L304.04,600.303L314.955,600.303L314.955,680.266L321.551,686.862L321.551,718.105L389.437,718.105L389.437,730.631L401.695,730.631L401.695,720.505L426.478,720.505L426.478,705.049L486.436,705.049L486.436,760.477C486.436,760.477 492.831,764.474 492.831,760.477L492.831,710.645L523.743,710.645L523.743,693.59L532.803,693.59L536.134,696.921L557.852,696.921L557.852,684.797L602.281,684.797L602.281,680.667L663.837,680.667L663.837,687.063L685.689,687.063L685.689,776.6L698.213,776.6L698.213,761.944L705.941,761.944L705.941,745.155L713.136,745.155L723.529,755.548L747.512,755.548L747.512,764.075L774.693,764.075L774.693,778.199L783.221,778.199L783.221,770.471L793.88,770.471L793.88,776.867L801.608,776.867L801.608,768.073L808.536,768.073L808.536,759.012L812.533,759.012L812.533,665.211L869.027,665.211L869.027,739.293L885.272,739.293L885.272,746.463L896.731,746.463L896.731,749.394L905.525,749.394L905.525,752.592L915.651,752.592L915.651,689.17L929.774,689.17L929.774,633.742L936.17,633.742L936.17,625.481L954.291,625.481L954.291,616.953L960,616.953L960,623.615L964.683,623.615L964.683,641.47L975.343,641.47L975.343,632.143L983.337,632.143L983.337,641.203L991.065,641.203L991.065,780.572L999.859,780.572L999.859,798.16L1004.65,798.16L1004.65,806.154L1012.69,806.154L1012.69,798.761L1020.98,798.761L1020.98,793.412L1026.77,793.412L1026.77,787.191L1039.97,787.191L1039.97,795.923L1048.05,795.923L1048.05,792.212L1078.28,792.212L1078.28,810.549L1087.78,810.549L1087.78,634.053L1092.91,634.053L1092.91,596.178L1097.17,596.178L1097.17,575.548L1103.17,575.548L1103.17,557.429L1108.52,557.429L1108.52,552.736L1111.03,552.736L1111.03,523.156L1114.74,523.156L1114.74,482.88L1120.09,482.88L1120.09,523.484L1124.56,523.484L1124.56,552.627L1127.73,552.627L1127.73,558.194L1131.88,558.194L1131.88,577.295L1137.88,577.295L1137.88,594.65L1143.77,594.65L1143.77,633.18L1150.54,633.18L1150.54,817.207L1178.27,817.207L1178.27,783.698L1182.74,783.698L1182.74,785.772L1221.27,785.772L1221.27,771.037L1247.68,771.037L1247.68,799.852L1253.47,799.852L1253.47,795.486L1260.67,795.486L1260.67,782.388L1302.48,782.388L1302.48,786.536L1309.36,786.536L1309.36,781.187L1321.03,781.187L1321.03,776.603L1343.63,776.603L1343.63,795.595L1352.03,795.595L1352.03,803.018L1360.66,803.018L1360.66,798.87L1429.64,798.87L1429.64,780.751L1433.68,780.751L1433.68,777.149L1466.1,777.149L1466.1,773.656L1482.36,773.656L1482.36,775.075L1485.85,775.075L1485.85,766.452L1496,766.452L1502.96,773.407L1508.94,773.407L1508.94,766.742L1512.9,766.742L1512.9,757.874L1518.9,757.874L1518.9,767.151L1531.59,767.151L1531.59,776.02L1537.45,776.02L1537.45,768.379L1557.24,768.379L1557.24,777.794L1560.24,777.794L1560.24,783.115L1576.48,783.115L1576.48,772.063L1588.57,772.063L1588.57,757.19L1600.83,757.19L1606.69,751.328L1622.41,751.328L1622.41,762.787L1633.07,762.787L1633.07,746.798L1644.53,746.798L1644.53,752.66L1686.63,752.66L1694.09,745.199L1713.28,745.199L1713.28,735.073L1722.08,735.073L1722.08,739.869C1722.08,739.869 1738.06,737.471 1738.06,739.869L1738.06,751.328L1750.59,751.328L1750.59,740.402L1771.11,740.402L1784.16,753.46L1792.79,753.46L1792.79,1040L125.039,1040L125.039,691.494Z" style="fill:rgb(94,107,95);"/>
    </g>
</svg>
