<?xml version="1.0" encoding="UTF-8" standalone="no"?>
<!DOCTYPE svg PUBLIC "-//W3C//DTD SVG 1.1//EN" "http://www.w3.org/Graphics/SVG/1.1/DTD/svg11.dtd">
<svg width="100%" height="100%" viewBox="0 0 1668 414" version="1.1" xmlns="http://www.w3.org/2000/svg" xmlns:xlink="http://www.w3.org/1999/xlink" xml:space="preserve" xmlns:serif="http://www.serif.com/" style="fill-rule:evenodd;clip-rule:evenodd;stroke-linejoin:round;stroke-miterlimit:2;">
    <g transform="matrix(1,0,0,1,-125.039,-626.782)">
        <path d="M125.039,650.904L130.433,650.904L130.433,626.782L151.936,626.782L151.936,638.024L176.494,638.024L176.494,641.626L182.825,641.626L182.825,632.457L193.522,632.457L193.522,640.753L209.458,640.753L213.987,636.223L222.337,636.223L222.337,641.189L332.579,641.189L346.495,627.273L355.064,627.273L355.064,640.316L371.764,640.316L371.764,649.485L399.16,649.485L403.09,645.555L413.786,645.555L413.786,635.95L434.852,635.95L434.852,639.989L459.52,639.989L459.52,635.514L469.344,635.514L471.69,637.86L487.681,637.86L496.113,629.428L507.983,629.428L507.983,640.316L587.553,640.316L587.553,643.154L749.749,643.154L749.749,635.623L760.664,635.623L760.664,639.116L796.356,639.116L796.356,643.372L806.726,643.372L806.726,636.823L831.612,636.823L831.612,642.281L838.925,642.281L838.925,646.538L843.946,646.538L843.946,638.133L1309.89,638.133L1309.89,641.948L1318.22,641.948L1322.37,637.801L1336.45,637.801L1336.45,633.435L1345.58,633.435L1345.58,638.974L1395.38,638.974L1395.38,634.71L1402.03,634.71L1402.03,638.803L1426.93,636.416L1426.93,639.315L1471.49,639.315L1471.49,636.507L1480.02,636.507L1480.02,639.066L1522.32,637.36L1522.32,640.43L1533.4,640.43L1533.4,637.36L1539.37,637.36L1539.37,641.112L1543.63,641.112L1543.63,637.531L1557.62,637.531L1557.62,640.601L1569.39,640.601L1569.39,637.701L1576.21,637.701L1576.21,640.601L1589.85,640.601L1589.85,637.872L1608.78,637.872L1608.78,641.283L1617.99,641.283L1617.99,636.849L1651.42,636.849L1651.42,631.22L1668.1,631.22L1668.1,639.461L1675.6,639.461L1675.6,634.686L1792.79,634.686L1792.79,1040L125.039,1040L125.039,650.904Z" style="fill:rgb(157,168,148);"/>
    </g>
</svg>
