<?xml version="1.0" encoding="UTF-8" standalone="no"?>
<!DOCTYPE svg PUBLIC "-//W3C//DTD SVG 1.1//EN" "http://www.w3.org/Graphics/SVG/1.1/DTD/svg11.dtd">
<svg width="100%" height="100%" viewBox="0 0 1668 208" version="1.1" xmlns="http://www.w3.org/2000/svg" xmlns:xlink="http://www.w3.org/1999/xlink" xml:space="preserve" xmlns:serif="http://www.serif.com/" style="fill-rule:evenodd;clip-rule:evenodd;stroke-linejoin:round;stroke-miterlimit:2;">
    <g transform="matrix(1,0,0,1,-125.039,-832.102)">
        <path d="M125.039,900.811L236.915,900.811L236.915,857.175L268.627,857.175L307.933,847.515L310.93,863.171L335.58,869.5L352.901,861.172L360.896,862.172L363.227,869.167L370.556,868.167L375.219,873.83L383.546,878.16L383.463,860.452L393.21,860.452L393.21,855.49L450.88,855.49L450.88,871.521L463.671,871.521L463.671,875.444L476.462,875.444L479.19,867.769L486.012,867.769L486.012,877.149L497.78,877.149L497.78,873.397L505.455,873.397L505.455,867.94L559.847,867.94L559.847,862.11L612.921,862.11L612.921,852.559L616.059,852.559L616.059,862.11L618.515,862.11L618.515,855.015L626.428,855.015L626.428,863.747L628.748,863.747L628.748,873.298L631.34,873.298L631.34,881.211L637.071,881.211L637.071,867.567L667.515,867.567L667.515,906.917L682.523,906.917L682.523,851.148L686.445,851.148L686.445,842.45L693.608,842.45L693.608,848.93L700.43,848.93L700.43,853.024L705.888,853.024L705.888,882.451L711.857,882.451L711.857,902.823L715.609,902.823L715.609,875.536L729.423,875.536L729.423,886.621L733.687,886.621L733.687,879.117L736.416,879.117L736.416,873.83L746.819,873.83L746.819,900.606L769.161,900.606L769.161,921.243L774.448,921.243L774.448,905.382L779.223,905.382L779.223,900.436L801.224,900.436L801.224,903.847L817.938,903.847L817.938,890.373L832.264,890.373L832.264,886.451L837.039,886.451L837.039,906.064L850.001,906.064L850.001,912.374L853.923,912.374L853.923,926.7L904.064,926.7L904.064,890.203L945.757,890.203L945.757,892.929L954.285,892.929L954.285,897.038L960,897.038L960,911.903L966.532,911.903L966.532,919.224L970.946,919.224L970.946,911.847L979.471,911.847L979.471,921.322L991.486,921.322L991.486,887.162L1018.87,887.162L1018.87,879.621L1065.24,879.621L1065.24,875.954L1084.45,875.954L1084.45,903.722L1093,903.722L1093,895.426L1100.78,895.426L1100.78,891.409L1107.94,891.409L1107.94,882.451L1130.46,882.451L1130.46,910.271L1136.58,910.271L1136.58,886.432L1146.79,886.432L1155,870.278L1162.69,870.278L1162.69,874.382L1167.84,874.382L1167.84,907.826L1182.42,907.826L1182.42,886.17L1208.01,886.17L1208.01,890.623L1209.66,890.623L1209.66,888.353L1217.17,888.353L1217.17,885.559L1281.44,885.559L1281.44,892.084L1422.89,892.084L1422.89,862.801L1460.41,862.801L1460.41,867.064L1493.45,867.064L1493.45,857.045L1501.98,857.045L1501.98,841.056L1514.77,841.056L1514.77,832.102L1530.76,832.102L1530.76,868.557L1535.96,873.755L1547.37,868.319L1571.24,868.319L1577.72,874.799L1606.03,874.799L1606.03,891.001L1631.45,891.001L1631.45,874.288L1637.07,874.288L1637.07,893.048L1641.34,893.048L1641.34,872.923L1648.84,872.923L1648.84,892.366L1666.75,888.102L1666.75,875.482L1675.28,875.482L1675.28,885.885L1688.92,885.885L1688.92,877.017L1696.08,877.017L1696.08,882.451L1792.79,882.451L1792.79,1040L125.039,1040L125.039,900.811Z" style="fill:rgb(58,75,69);"/>
    </g>
</svg>
