<?xml version="1.0" encoding="UTF-8" standalone="no"?>
<!DOCTYPE svg PUBLIC "-//W3C//DTD SVG 1.1//EN" "http://www.w3.org/Graphics/SVG/1.1/DTD/svg11.dtd">
<svg width="100%" height="100%" viewBox="0 0 1668 441" version="1.1" xmlns="http://www.w3.org/2000/svg" xmlns:xlink="http://www.w3.org/1999/xlink" xml:space="preserve" xmlns:serif="http://www.serif.com/" style="fill-rule:evenodd;clip-rule:evenodd;stroke-linejoin:round;stroke-miterlimit:2;">
    <g transform="matrix(1,0,0,1,-125.039,-599.97)">
        <path d="M732.913,767.52L732.913,644.606L764.557,644.606L764.557,628.284L773.218,628.284L773.218,620.956L777.548,620.956L777.548,625.619L783.877,625.619L783.877,648.936L816.188,648.936L816.188,792.169L882.808,792.169L882.808,686.909L889.803,686.909L889.803,645.605L902.127,645.605L902.127,632.614L918.116,632.614L918.116,641.608L941.433,641.608L941.433,718.105L966.083,718.105L966.083,662.26L989.066,662.26L1002.56,675.751L1002.56,702.898L1018.05,702.898L1018.05,781.177L1050.69,781.177L1050.69,673.252L1163.61,673.252L1163.61,776.513L1176.6,776.513L1176.6,784.175L1184.93,784.175L1184.93,774.848L1208.91,774.848L1208.58,701.566L1212.24,647.271L1214.91,631.282L1218.24,616.292L1222.9,607.299L1228.9,601.969L1235.23,599.97L1240.22,600.637L1244.22,602.968L1248.22,606.965L1251.55,612.961L1254.88,616.958L1257.21,622.621L1259.54,630.616L1260.88,639.942L1261.54,647.271L1262.21,660.261L1265.21,773.515L1270.54,773.515L1279.2,689.241L1323.83,689.241L1323.83,683.245L1338.15,668.922L1377.79,668.922L1377.79,709.893L1413.44,730.212L1448.08,730.212L1448.08,718.105L1529.02,718.105L1529.02,743.203L1554.67,743.203L1554.67,724.903L1559,724.903L1559,714.224L1566.33,714.224L1566.33,692.905L1600.31,692.905L1600.31,823.373L1792.79,823.373L1792.79,1040L125.039,1040L125.039,762.477L732.913,767.52Z" style="fill:rgb(113,125,110);"/>
    </g>
</svg>
